<svg xmlns="http://www.w3.org/2000/svg" xmlns:xlink="http://www.w3.org/1999/xlink" width="148px" height="16px" viewBox="0 0 148 16" version="1.1">
    <!-- Generator: Sketch 63.1 (92452) - https://sketch.com -->
    <title>Stacked Group</title>
    <desc>Created with Sketch.</desc>
    <defs>
        <polygon id="path-1" points="0.2519 0.4615 15.7899 0.4615 15.7899 16 0.2519 16"/>
    </defs>
    <g id="Unidos-2021-Landing-Page" stroke="none" stroke-width="1" fill="none" fill-rule="evenodd">
        <g id="Stacked-Group">
            <path d="M41.6991859,1.00293378 L39.7805918,1 C37.6242409,1 36.2307792,2.35247276 36.2307792,4.44621403 L36.2307792,6.03436714 L34.3008141,6.03436714 C34.1343843,6.03436714 34,6.1605197 34,6.31992177 L34,8.62098351 C34,8.77842973 34.1343843,8.90653814 34.3008141,8.90653814 L36.2307792,8.90653814 L36.2307792,14.7144454 C36.2307792,14.8718916 36.3661972,15 36.532627,15 L39.049748,15 C39.2161778,15 39.3515958,14.8718916 39.3515958,14.7144454 L39.3515958,8.90653814 L41.6071844,8.90653814 C41.7746479,8.90653814 41.9090322,8.77842973 41.9090322,8.62098351 L41.9100659,6.31992177 C41.9100659,6.24364348 41.8780204,6.17127689 41.8211655,6.11651299 C41.7653444,6.06468287 41.6888487,6.03436714 41.6082181,6.03436714 L39.3515958,6.03436714 L39.3515958,4.68776194 C39.3515958,4.03939648 39.5149244,3.711791 40.4059956,3.711791 L41.6981522,3.711791 C41.8656157,3.711791 42,3.58368259 42,3.42623638 L42,1.2884884 C42,1.13104219 41.8656157,1.00391171 41.6991859,1.00293378" id="Fill-1" fill="#231F20"/>
            <path d="M14,3.42002064 C13.4865526,3.65944272 12.9310513,3.82662539 12.3501222,3.89886481 C12.9447433,3.52425181 13.397555,2.92879257 13.6146699,2.22084623 C13.0591687,2.56862745 12.4449878,2.82043344 11.7867971,2.95562436 C11.2655257,2.36945304 10.5173594,2 9.69290954,2 C8.10855746,2 6.82249389,3.35706914 6.82249389,5.02992776 C6.82249389,5.26831785 6.84889976,5.49845201 6.89584352,5.72033024 C4.50660147,5.59236326 2.39315403,4.38906089 0.97408313,2.55417957 C0.725672372,3.00103199 0.584841076,3.52425181 0.584841076,4.07843137 C0.584841076,5.12899897 1.09339853,6.05779154 1.86210269,6.59752322 C1.39168704,6.58513932 0.952567237,6.44582043 0.564303178,6.21981424 L0.564303178,6.25593395 C0.564303178,7.7254902 1.55501222,8.9504644 2.86650367,9.23116615 C2.62689487,9.29824561 2.37066015,9.33333333 2.11051345,9.33333333 C1.92665037,9.33333333 1.74767726,9.31682147 1.56772616,9.28173375 C1.93545232,10.4850361 2.99462103,11.3581011 4.25036675,11.3859649 C3.26748166,12.1971104 2.02836186,12.6800826 0.683618582,12.6800826 C0.452811736,12.6800826 0.22591687,12.6656347 0,12.6398349 C1.27334963,13.500516 2.78141809,14 4.40391198,14 C9.68410758,14 12.5731051,9.38390093 12.5731051,5.38080495 L12.5633252,4.98968008 C13.1286064,4.56037152 13.6146699,4.02889577 14,3.42002064" id="Fill-3" fill="#231F20"/>
            <g id="Group-7" transform="translate(62.000000, 0.000000)">
                <mask id="mask-2" fill="white">
                    <use xlink:href="#path-1"/>
                </mask>
                <g id="Clip-6"/>
                <path d="M12.9079,3.3545 C13.0959,3.5415 13.2039,3.8035 13.2039,4.0695 C13.2039,4.3345 13.0959,4.5965 12.9079,4.7845 C12.7199,4.9715 12.4589,5.0815 12.1929,5.0815 C11.9269,5.0815 11.6659,4.9715 11.4789,4.7845 C11.2899,4.5965 11.1819,4.3345 11.1819,4.0695 C11.1819,3.8035 11.2899,3.5415 11.4789,3.3545 C11.6659,3.1665 11.9269,3.0585 12.1929,3.0585 C12.4589,3.0585 12.7209,3.1665 12.9079,3.3545 M8.0209,10.8565 C6.5739,10.8565 5.3959,9.6785 5.3959,8.2315 C5.3959,6.7845 6.5739,5.6065 8.0209,5.6065 C9.4689,5.6065 10.6459,6.7845 10.6459,8.2315 C10.6459,9.6785 9.4689,10.8565 8.0209,10.8565 M8.0209,4.2275 C5.8139,4.2275 4.0169,6.0235 4.0169,8.2315 C4.0169,10.4385 5.8139,12.2355 8.0209,12.2355 C10.2289,12.2355 12.0249,10.4385 12.0249,8.2315 C12.0249,6.0235 10.2289,4.2275 8.0209,4.2275 M11.5019,14.6225 L4.5399,14.6225 C2.9359,14.6225 1.6309,13.3165 1.6309,11.7115 L1.6309,4.7505 C1.6309,3.1455 2.9359,1.8405 4.5399,1.8405 L11.5019,1.8405 C13.1059,1.8405 14.4109,3.1455 14.4109,4.7505 L14.4109,11.7115 L14.4119,11.7115 C14.4119,13.3165 13.1059,14.6225 11.5019,14.6225 M11.5019,0.4615 L4.5399,0.4615 C2.1759,0.4615 0.2519,2.3855 0.2519,4.7505 L0.2519,11.7115 C0.2519,14.0775 2.1759,16.0005 4.5399,16.0005 L11.5019,16.0005 C13.8659,16.0005 15.7899,14.0775 15.7899,11.7115 L15.7899,4.7505 C15.7899,2.3855 13.8659,0.4615 11.5019,0.4615" id="Fill-5" fill="#231F20" mask="url(#mask-2)"/>
            </g>
            <path d="M147.989409,13.7571279 C147.956672,7.26704682 142.673514,2 136.184867,2 C136.082805,2 136,2.08288491 136,2.18600916 L136,4.51064172 C136,4.61376596 136.082805,4.69665087 136.184867,4.69665087 C141.208056,4.69665087 145.294391,8.78788852 145.294391,13.8159184 C145.294391,13.9171151 145.377197,14 145.478296,14 L147.802616,14 L147.812244,14 C147.913343,14 148,13.9171151 148,13.8159184 L147.989409,13.7571279 Z M136.184867,5.91968517 C136.082805,5.91968517 136,6.00353385 136,6.10569432 L136,8.36575375 C136,8.46791422 136.082805,8.55079913 136.184867,8.55079913 C139.084009,8.55079913 141.444917,10.9120553 141.444917,13.8159184 C141.444917,13.9161513 141.526759,14 141.629784,14 L143.88863,14 L143.896333,14 C143.999358,14 144.082163,13.9161513 144.082163,13.8159184 L144.073498,13.7571279 C144.040761,9.43169223 140.512878,5.91968517 136.184867,5.91968517 L136.184867,5.91968517 Z M139.557731,12.2208658 C139.557731,13.2019918 138.759528,14 137.779347,14 C136.79724,14 136,13.201028 136,12.2208658 C136,11.238776 136.79724,10.4407678 137.779347,10.4407678 C138.759528,10.4407678 139.557731,11.238776 139.557731,12.2208658 L139.557731,12.2208658 Z" id="Fill-10" fill="#231F20"/>
            <path d="M104.749875,11.2720654 L104.749875,4.72793463 L110.374437,7.9995146 L104.749875,11.2720654 Z M115.234106,3.15621713 C114.746538,2.31356686 114.215919,2.15921042 113.137661,2.10096271 C112.060404,2.02912386 109.349241,2 107.002503,2 C104.649758,2 101.938595,2.02912386 100.862339,2.09999191 C99.7860838,2.15921042 99.2544635,2.31259607 98.7618889,3.15621713 C98.2593025,3.99789661 98,5.44632311 98,7.99660222 L98,7.9995146 L98,8.00339778 L98,8.00533937 C98,10.5449397 98.2593025,12.004045 98.7618889,12.8360165 C99.2544635,13.6786668 99.7850826,13.8310816 100.861338,13.9019497 C101.938595,13.9631098 104.649758,14 107.002503,14 C109.349241,14 112.060404,13.9631098 113.138662,13.9029205 C114.217921,13.8330232 114.747539,13.6786668 115.235108,12.8369873 C115.7427,12.0050158 116,10.5459105 116,8.00631017 L116,8.0004854 L116,7.99757301 C116,5.44632311 115.7427,3.99789661 115.234106,3.15621713 L115.234106,3.15621713 Z" id="Fill-12" fill="#231F20"/>
        </g>
    </g>
</svg>