<?xml version="1.0" encoding="UTF-8"?>
<svg width="421px" height="258.574279px" viewBox="0 0 421 258.574279" version="1.1" xmlns="http://www.w3.org/2000/svg" xmlns:xlink="http://www.w3.org/1999/xlink">
    <!-- Generator: Sketch 63.1 (92452) - https://sketch.com -->
    <title>Group 88</title>
    <desc>Created with Sketch.</desc>
    <defs>
        <polygon id="path-1" points="0 257.911508 420.923455 257.911508 420.923455 0 0 0"></polygon>
    </defs>
    <g id="Unidos-2021-Landing-Page" stroke="none" stroke-width="1" fill="none" fill-rule="evenodd">
        <g id="Group-88">
            <path d="M204.946814,156.649619 C204.826395,156.940865 204.659302,157.187304 204.444601,157.388936 C204.228967,157.591502 203.974127,157.74926 203.67728,157.863145 C203.380433,157.976096 203.054648,158.033038 202.701792,158.033038 L200.086178,158.033038 L200.086178,153.409506 L202.701792,153.409506 C203.168532,153.409506 203.585798,153.511256 203.951723,153.712888 C204.318581,153.915453 204.60516,154.189896 204.81426,154.537151 C205.022426,154.884406 205.126042,155.279269 205.126042,155.721739 C205.126042,156.050324 205.0663,156.359307 204.946814,156.649619 M205.117641,151.913136 C204.428732,151.535076 203.66141,151.344646 202.814743,151.344646 L197.907433,151.344646 L197.907433,164.607546 L200.086178,164.607546 L200.086178,160.097899 L202.814743,160.097899 C204.10388,160.097899 205.177384,159.681566 206.036186,158.847967 C206.894989,158.014369 207.32439,156.972604 207.32439,155.721739 C207.32439,154.901209 207.128359,154.155358 206.737231,153.485118 C206.346102,152.816746 205.805617,152.292129 205.117641,151.913136" id="Fill-1" fill="#000000"></path>
            <path d="M221.013798,161.396371 C220.110188,162.312116 218.973208,162.770455 217.602858,162.770455 C216.232508,162.770455 215.091794,162.312116 214.183517,161.396371 C213.273373,160.481559 212.818767,159.340845 212.818767,157.976096 C212.818767,156.61228 213.273373,155.4725 214.183517,154.556755 C215.091794,153.640076 216.232508,153.18267 217.602858,153.18267 C218.973208,153.18267 220.110188,153.640076 221.013798,154.556755 C221.916475,155.4725 222.368279,156.61228 222.368279,157.976096 C222.368279,159.340845 221.916475,160.481559 221.013798,161.396371 M224.585297,157.976096 C224.585297,156.006451 223.921592,154.367258 222.595115,153.059451 C221.268639,151.752577 219.601441,151.09914 217.593523,151.09914 C215.585605,151.09914 213.917475,151.752577 212.591931,153.059451 C211.265455,154.367258 210.601749,156.006451 210.601749,157.976096 C210.601749,159.946675 211.265455,161.585868 212.591931,162.893675 C213.917475,164.200548 215.585605,164.853985 217.593523,164.853985 C218.92,164.853985 220.116723,164.558072 221.184625,163.963444 C222.250661,163.36975 223.085193,162.545486 223.684488,161.491586 C224.284716,160.436752 224.585297,159.265233 224.585297,157.976096" id="Fill-3" fill="#000000"></path>
            <path d="M235.015082,157.502914 C234.718235,157.60373 234.39245,157.654138 234.039594,157.654138 L231.178475,157.654138 L231.178475,153.391863 L234.039594,153.391863 C234.746239,153.391863 235.31753,153.590695 235.754399,153.987424 C236.190335,154.386021 236.407836,154.894768 236.407836,155.512733 C236.407836,155.829183 236.350894,156.120429 236.237942,156.385537 C236.123124,156.649713 235.965366,156.877482 235.763734,157.066979 C235.561169,157.256475 235.310996,157.402098 235.015082,157.502914 L235.015082,157.502914 Z M235.914958,159.396948 C236.736421,159.0945 237.392659,158.598821 237.885537,157.910846 C238.378415,157.221937 238.62392,156.429411 238.62392,155.532336 C238.62392,154.736076 238.431623,154.016362 238.046095,153.37226 C237.661501,152.728158 237.12755,152.229679 236.445175,151.87589 C235.763734,151.522101 235.005747,151.344739 234.172149,151.344739 L228.999729,151.344739 L228.999729,164.607639 L231.178475,164.607639 L231.178475,159.700329 L233.69794,159.700329 L236.54039,164.607639 L238.984244,164.607639 L235.914958,159.396948 Z" id="Fill-5" fill="#000000"></path>
            <polygon id="Fill-7" fill="#000000" points="254.066686 164.60792 254.066686 153.37254 257.96957 153.37254 257.96957 151.345019 248.002792 151.345019 248.002792 153.37254 251.90661 153.37254 251.90661 164.60792"></polygon>
            <path d="M270.95868,161.396371 C270.055071,162.312116 268.918091,162.770455 267.54774,162.770455 C266.17739,162.770455 265.036676,162.312116 264.128399,161.396371 C263.218255,160.481559 262.763649,159.340845 262.763649,157.976096 C262.763649,156.61228 263.218255,155.4725 264.128399,154.556755 C265.036676,153.640076 266.17739,153.18267 267.54774,153.18267 C268.918091,153.18267 270.055071,153.640076 270.95868,154.556755 C271.861357,155.4725 272.313162,156.61228 272.313162,157.976096 C272.313162,159.340845 271.861357,160.481559 270.95868,161.396371 M272.539998,153.059451 C271.213521,151.752577 269.546324,151.09914 267.538406,151.09914 C265.530488,151.09914 263.862357,151.752577 262.536814,153.059451 C261.210337,154.367258 260.547565,156.006451 260.547565,157.976096 C260.547565,159.946675 261.210337,161.585868 262.536814,162.893675 C263.862357,164.200548 265.530488,164.853985 267.538406,164.853985 C268.864882,164.853985 270.061605,164.558072 271.129508,163.963444 C272.195543,163.36975 273.030075,162.545486 273.62937,161.491586 C274.229598,160.436752 274.530179,159.265233 274.530179,157.976096 C274.530179,156.006451 273.866474,154.367258 272.539998,153.059451" id="Fill-9" fill="#000000"></path>
            <path d="M281.123077,153.391583 L283.984196,153.391583 C284.690842,153.391583 285.263066,153.590415 285.699001,153.988078 C286.134937,154.385741 286.353372,154.894488 286.353372,155.512453 C286.353372,155.828903 286.295496,156.120149 286.182545,156.385257 C286.06866,156.649433 285.909968,156.877202 285.708336,157.067632 C285.505771,157.257129 285.256531,157.401818 284.959684,157.502634 C284.662837,157.604384 284.337052,157.653858 283.984196,157.653858 L281.123077,157.653858 L281.123077,153.391583 Z M286.484992,164.608293 L288.928846,164.608293 L285.85956,159.397601 C286.681024,159.09422 287.337261,158.598541 287.831072,157.910566 C288.323017,157.22259 288.569456,156.429131 288.569456,155.532056 C288.569456,154.735796 288.377159,154.016082 287.990698,153.37198 C287.606103,152.727878 287.072152,152.229399 286.390711,151.87561 C285.708336,151.521821 284.951283,151.345393 284.116751,151.345393 L278.944332,151.345393 L278.944332,164.608293 L281.123077,164.608293 L281.123077,159.700982 L283.642542,159.700982 L286.484992,164.608293 Z" id="Fill-11" fill="#000000"></path>
            <path d="M295.352223,153.391583 L298.213343,153.391583 C298.919988,153.391583 299.492212,153.590415 299.928148,153.988078 C300.364084,154.385741 300.582518,154.894488 300.582518,155.512453 C300.582518,155.828903 300.524642,156.120149 300.411691,156.385257 C300.297806,156.649433 300.139115,156.877202 299.937483,157.067632 C299.734917,157.257129 299.485678,157.401818 299.188831,157.502634 C298.891984,157.604384 298.566199,157.653858 298.213343,157.653858 L295.352223,157.653858 L295.352223,153.391583 Z M300.714139,164.608293 L303.157993,164.608293 L300.088707,159.397601 C300.91017,159.09422 301.566407,158.598541 302.060219,157.910566 C302.552163,157.22259 302.798602,156.429131 302.798602,155.532056 C302.798602,154.735796 302.606305,154.016082 302.219844,153.37198 C301.83525,152.727878 301.301299,152.229399 300.619857,151.87561 C299.937483,151.521821 299.180429,151.345393 298.345897,151.345393 L293.173478,151.345393 L293.173478,164.608293 L295.352223,164.608293 L295.352223,159.700982 L297.871689,159.700982 L300.714139,164.608293 Z" id="Fill-13" fill="#000000"></path>
            <polygon id="Fill-15" fill="#000000" points="315.114019 153.391583 315.114019 151.345393 307.402531 151.345393 307.402531 164.608293 315.323119 164.608293 315.323119 162.542499 309.581276 162.542499 309.581276 158.848714 314.622075 158.848714 314.622075 156.838929 309.581276 156.838929 309.581276 153.391583"></polygon>
            <path d="M328.471668,159.160124 C328.382054,158.951957 328.254167,158.753126 328.082406,158.563629 C327.911579,158.374132 327.757555,158.216374 327.618466,158.090354 C327.480311,157.964334 327.28428,157.837381 327.031306,157.710427 C326.779267,157.585341 326.570167,157.487325 326.405874,157.417314 C326.241581,157.348237 326.008211,157.26609 325.70483,157.170875 C325.401448,157.076594 325.170878,157.009383 325.01312,156.972044 C324.855362,156.933771 324.618258,156.877762 324.302741,156.80215 C323.898544,156.700401 323.592362,156.621055 323.384196,156.565046 C323.175096,156.508104 322.920255,156.422223 322.616874,156.308339 C322.313493,156.195387 322.085723,156.078702 321.934499,155.958283 C321.783275,155.837864 321.649788,155.682906 321.535903,155.494343 C321.422952,155.304846 321.366009,155.095747 321.366009,154.868911 C321.366009,154.338693 321.596579,153.925161 322.057719,153.627381 C322.518859,153.331467 323.096683,153.183044 323.791193,153.183044 C324.511841,153.183044 325.101801,153.362272 325.562941,153.722596 C326.02408,154.08292 326.25465,154.578598 326.25465,155.210565 L328.413792,155.210565 C328.413792,153.9597 328.010528,152.971143 327.202133,152.244895 C326.392805,151.517713 325.268894,151.155523 323.828533,151.155523 C322.414309,151.155523 321.287597,151.489709 320.44653,152.159948 C319.607331,152.829254 319.187264,153.758068 319.187264,154.944523 C319.187264,155.336585 319.236739,155.690374 319.338488,156.005891 C319.439304,156.321407 319.555989,156.59025 319.689477,156.810551 C319.821098,157.03272 320.020863,157.239953 320.285972,157.435984 C320.552014,157.632015 320.78165,157.786973 320.977681,157.899924 C321.173712,158.013809 321.450956,158.130494 321.81128,158.250913 C322.171604,158.371332 322.452581,158.459079 322.655147,158.516955 C322.855845,158.572964 323.153626,158.645775 323.545688,158.734456 C323.898544,158.823137 324.163652,158.889414 324.341014,158.933288 C324.517442,158.978095 324.748012,159.043438 325.03179,159.132119 C325.316502,159.219866 325.531202,159.312281 325.676825,159.407496 C325.821515,159.501778 325.972739,159.611928 326.131431,159.737948 C326.289189,159.864902 326.40214,160.016126 326.472151,160.192554 C326.542162,160.369915 326.576701,160.565946 326.576701,160.780647 C326.576701,161.361272 326.323728,161.831747 325.818714,162.19207 C325.312768,162.552394 324.69387,162.731622 323.96202,162.731622 C323.153626,162.731622 322.48712,162.526257 321.962504,162.116458 C321.438821,161.70666 321.177446,161.147505 321.177446,160.438993 L318.979098,160.438993 C318.979098,161.322999 319.187264,162.096855 319.603597,162.76056 C320.020863,163.423332 320.604289,163.932079 321.356675,164.285869 C322.108127,164.638724 322.982799,164.817019 323.98069,164.817019 C325.370643,164.817019 326.519759,164.459496 327.428969,163.745383 C328.33818,163.032203 328.793719,162.030578 328.793719,160.742374 C328.793719,160.438993 328.76198,160.15148 328.698504,159.879837 C328.635027,159.608194 328.559415,159.369223 328.471668,159.160124" id="Fill-17" fill="#000000"></path>
            <polygon id="Fill-19" fill="#000000" points="344.235177 161.500267 340.351896 151.344926 337.945381 151.344926 343.231685 164.607826 345.259206 164.607826 350.431625 151.344926 348.04378 151.344926"></polygon>
            <polygon id="Fill-21" fill="#000000" points="362.254818 162.542219 356.513908 162.542219 356.513908 158.848434 361.553773 158.848434 361.553773 156.839583 356.513908 156.839583 356.513908 153.391303 362.045718 153.391303 362.045718 151.345113 354.335163 151.345113 354.335163 164.608013 362.254818 164.608013"></polygon>
            <path d="M374.673571,154.660464 C375.072167,155.065595 375.381149,155.551005 375.602384,156.119495 C375.822686,156.687985 375.934704,157.306883 375.934704,157.976189 C375.934704,159.314801 375.508103,160.417243 374.654901,161.28258 C373.801699,162.147917 372.712327,162.580118 371.386784,162.580118 L368.941996,162.580118 L368.941996,153.37226 L371.386784,153.37226 C372.043954,153.37226 372.656318,153.485212 373.223875,153.712981 C373.793298,153.94075 374.275908,154.256267 374.673571,154.660464 L374.673571,154.660464 Z M366.763251,151.344739 L366.763251,164.607639 L371.443726,164.607639 C373.388167,164.607639 374.996555,163.982207 376.265156,162.731342 C377.53469,161.482345 378.169458,159.89636 378.169458,157.976189 C378.169458,156.056019 377.53469,154.470968 376.265156,153.220103 C374.996555,151.970172 373.388167,151.344739 371.443726,151.344739 L366.763251,151.344739 Z" id="Fill-23" fill="#000000"></path>
            <path d="M384.782331,153.391583 L387.643451,153.391583 C388.350096,153.391583 388.92232,153.590415 389.358256,153.988078 C389.794192,154.385741 390.012626,154.894488 390.012626,155.512453 C390.012626,155.828903 389.954751,156.120149 389.841799,156.385257 C389.727915,156.649433 389.569223,156.877202 389.367591,157.067632 C389.165025,157.257129 388.915786,157.401818 388.618939,157.502634 C388.322092,157.604384 387.996307,157.653858 387.643451,157.653858 L384.782331,157.653858 L384.782331,153.391583 Z M382.603586,164.608293 L384.782331,164.608293 L384.782331,159.700982 L387.301797,159.700982 L390.144247,164.608293 L392.588101,164.608293 L389.518815,159.397601 C390.340278,159.09422 390.996516,158.598541 391.490327,157.910566 C391.982272,157.22259 392.228711,156.429131 392.228711,155.532056 C392.228711,154.735796 392.036414,154.016082 391.649952,153.37198 C391.265358,152.727878 390.731407,152.229399 390.049966,151.87561 C389.367591,151.521821 388.610538,151.345393 387.776006,151.345393 L382.603586,151.345393 L382.603586,164.608293 Z" id="Fill-25" fill="#000000"></path>
            <path d="M399.466363,159.776408 L401.646042,154.187656 L403.862126,159.776408 L399.466363,159.776408 Z M400.603343,151.345206 L395.260097,164.608106 L397.57233,164.608106 L398.708377,161.728317 L404.620113,161.728317 L405.776696,164.608106 L408.125335,164.608106 L402.649534,151.345206 L400.603343,151.345206 Z" id="Fill-27" fill="#000000"></path>
            <path d="M420.119634,159.160124 C420.03002,158.951957 419.902133,158.753126 419.730372,158.563629 C419.559545,158.374132 419.405521,158.216374 419.266432,158.090354 C419.128277,157.964334 418.932246,157.837381 418.679273,157.710427 C418.427233,157.585341 418.218133,157.487325 418.05384,157.417314 C417.889547,157.348237 417.656177,157.26609 417.352796,157.170875 C417.049414,157.076594 416.818845,157.009383 416.661086,156.972044 C416.503328,156.933771 416.266224,156.877762 415.950707,156.80215 C415.54651,156.700401 415.240328,156.621055 415.032162,156.565046 C414.823062,156.508104 414.568222,156.422223 414.26484,156.308339 C413.961459,156.195387 413.733689,156.078702 413.582465,155.958283 C413.431241,155.837864 413.297754,155.682906 413.183869,155.494343 C413.070918,155.304846 413.013975,155.095747 413.013975,154.868911 C413.013975,154.338693 413.244545,153.925161 413.705685,153.627381 C414.166825,153.331467 414.744649,153.183044 415.439159,153.183044 C416.159807,153.183044 416.749767,153.362272 417.210907,153.722596 C417.672046,154.08292 417.902616,154.578598 417.902616,155.210565 L420.061758,155.210565 C420.061758,153.9597 419.658494,152.971143 418.8501,152.244895 C418.040771,151.517713 416.91686,151.155523 415.476499,151.155523 C414.062275,151.155523 412.935563,151.489709 412.094496,152.159948 C411.255297,152.829254 410.83523,153.758068 410.83523,154.944523 C410.83523,155.336585 410.884705,155.690374 410.986454,156.005891 C411.08727,156.321407 411.203955,156.59025 411.337443,156.810551 C411.469064,157.03272 411.668829,157.239953 411.933938,157.435984 C412.19998,157.632015 412.429616,157.786973 412.625647,157.899924 C412.821678,158.013809 413.098922,158.130494 413.459246,158.250913 C413.81957,158.371332 414.100547,158.459079 414.303113,158.516955 C414.503811,158.572964 414.801592,158.645775 415.193654,158.734456 C415.54651,158.823137 415.811618,158.889414 415.98898,158.933288 C416.165408,158.978095 416.395978,159.043438 416.679756,159.132119 C416.964468,159.219866 417.179168,159.312281 417.324791,159.407496 C417.469481,159.501778 417.620705,159.611928 417.779397,159.737948 C417.937155,159.864902 418.050106,160.016126 418.120117,160.192554 C418.190128,160.369915 418.224667,160.565946 418.224667,160.780647 C418.224667,161.361272 417.971694,161.831747 417.46668,162.19207 C416.960734,162.552394 416.341836,162.731622 415.609986,162.731622 C414.801592,162.731622 414.135086,162.526257 413.61047,162.116458 C413.086787,161.70666 412.825412,161.147505 412.825412,160.438993 L410.627064,160.438993 C410.627064,161.322999 410.83523,162.096855 411.251563,162.76056 C411.668829,163.423332 412.252255,163.932079 413.004641,164.285869 C413.756093,164.638724 414.630765,164.817019 415.628656,164.817019 C417.01861,164.817019 418.167725,164.459496 419.076935,163.745383 C419.986146,163.032203 420.441685,162.030578 420.441685,160.742374 C420.441685,160.438993 420.409947,160.15148 420.34647,159.879837 C420.282993,159.608194 420.207381,159.369223 420.119634,159.160124" id="Fill-29" fill="#000000"></path>
            <mask id="mask-2" fill="white">
                <use xlink:href="#path-1"></use>
            </mask>
            <g id="Clip-32"></g>
            <polygon id="Fill-31" fill="#000000" mask="url(#mask-2)" points="360.444144 185.590055 419.708062 185.590055 419.708062 185.19986 360.444144 185.19986"></polygon>
            <path d="M215.359143,132.989886 C220.881617,132.989886 225.453808,131.26668 229.076648,127.821201 C232.698555,124.374788 234.511376,119.958489 234.511376,114.567635 L234.511376,85.6082497 L224.504458,85.6082497 L224.504458,114.103695 C224.504458,116.93121 223.653123,119.206103 221.95232,120.92931 C220.251518,122.652516 218.054103,123.514119 215.359143,123.514119 C212.664183,123.514119 210.47797,122.652516 208.798637,120.92931 C207.119305,119.206103 206.280105,116.93121 206.280105,114.103695 L206.280105,85.6082497 L196.207843,85.6082497 L196.207843,114.567635 C196.207843,119.958489 198.018797,124.374788 201.641637,127.821201 C205.264478,131.26668 209.835735,132.989886 215.359143,132.989886" id="Fill-33" fill="#000000" mask="url(#mask-2)"></path>
            <path d="M252.934466,113.176188 C252.934466,111.276554 253.25465,109.620559 253.895018,108.206335 C254.535386,106.793044 255.463267,105.710206 256.678659,104.958754 C257.893118,104.208235 259.31761,103.832042 260.953069,103.832042 C265.105194,103.832042 267.182189,106.505532 267.182189,111.850645 L267.182189,131.996102 L276.857721,131.996102 L276.857721,110.326271 C276.857721,105.776483 275.674067,102.142441 273.311426,99.4260111 C270.947852,96.7086475 267.733876,95.3494989 263.6695,95.3494989 C262.432637,95.3494989 261.25085,95.4717849 260.124138,95.71449 C258.997426,95.9581286 257.926724,96.3109845 256.911096,96.7749246 C255.893602,97.2388647 254.955453,97.7914856 254.09385,98.4318537 C253.232247,99.0722217 252.470526,99.8124723 251.807755,100.651672 L249.885717,96.211102 L243.259868,96.211102 L243.259868,131.996102 L252.934466,131.996102 L252.934466,113.176188 Z" id="Fill-34" fill="#000000" mask="url(#mask-2)"></path>
            <polygon id="Fill-35" fill="#000000" mask="url(#mask-2)" points="285.736714 131.996102 295.411313 131.996102 295.411313 96.211102 285.736714 96.211102"></polygon>
            <polygon id="Fill-36" fill="#000000" mask="url(#mask-2)" points="285.736714 91.4400798 295.411313 91.4400798 295.411313 82.4273193 285.736714 82.4273193"></polygon>
            <path d="M314.959902,107.079436 C316.815662,105.223676 319.144698,104.296729 321.950742,104.296729 C324.755853,104.296729 327.086755,105.223676 328.942516,107.079436 C330.798276,108.935197 331.726157,111.265166 331.726157,114.070277 C331.726157,116.877255 330.798276,119.217492 328.942516,121.095656 C327.086755,122.972886 324.755853,123.911969 321.950742,123.911969 C319.144698,123.911969 316.815662,122.984088 314.959902,121.128328 C313.105075,119.272567 312.177194,116.931396 312.177194,114.103882 C312.177194,111.277301 313.105075,108.935197 314.959902,107.079436 M311.514423,130.604095 C314.385811,132.23862 317.610988,133.05635 321.189021,133.05635 C325.474633,133.05635 329.207624,131.709337 332.388928,129.014376 L333.51564,131.995915 L340.67264,131.995915 L340.67264,83.2896692 L330.997108,83.2896692 L330.997108,98.1338865 C328.081846,96.1894452 324.811862,95.2167579 321.189021,95.2167579 C317.610988,95.2167579 314.385811,96.0354208 311.514423,97.6690129 C308.641168,99.3044718 306.399879,101.556962 304.788691,104.42835 C303.174702,107.300671 302.369108,110.524915 302.369108,114.103882 C302.369108,117.681915 303.174702,120.919228 304.788691,123.812086 C306.399879,126.705878 308.641168,128.970503 311.514423,130.604095" id="Fill-37" fill="#000000" mask="url(#mask-2)"></path>
            <path d="M360.088861,107.046111 C361.855941,105.213688 364.142036,104.296076 366.948081,104.296076 C369.753192,104.296076 372.039287,105.213688 373.806367,107.046111 C375.572513,108.879468 376.45652,111.232774 376.45652,114.104162 C376.45652,116.976484 375.572513,119.328856 373.806367,121.16128 C372.039287,122.994637 369.76346,123.911315 366.980753,123.911315 C365.565595,123.911315 364.273657,123.669543 363.103072,123.182266 C361.93342,122.696856 360.927127,122.034084 360.088861,121.194885 C359.249662,120.355685 358.597158,119.317654 358.133218,118.079858 C357.669278,116.843929 357.437775,115.518386 357.437775,114.104162 C357.437775,111.232774 358.320848,108.879468 360.088861,107.046111 M366.980753,132.989419 C372.45842,132.989419 377.041812,131.190601 380.73093,127.589231 C384.419114,123.988794 386.264606,119.494082 386.264606,114.104162 C386.264606,108.669435 384.430316,104.163521 380.763602,100.585488 C377.096888,97.0065213 372.502294,95.2170379 366.980753,95.2170379 C361.414404,95.2170379 356.797407,97.0065213 353.130693,100.585488 C349.463045,104.163521 347.629688,108.669435 347.629688,114.104162 C347.629688,117.639255 348.45862,120.853231 350.114615,123.746089 C351.772478,126.63988 354.080043,128.904506 357.040112,130.539031 C359.999247,132.172623 363.313105,132.989419 366.980753,132.989419" id="Fill-38" fill="#000000" mask="url(#mask-2)"></path>
            <path d="M408.796694,124.57446 C408.044308,124.839569 407.206042,124.972123 406.278162,124.972123 C405.129047,124.972123 404.112486,124.805963 403.229413,124.474578 C402.345406,124.143192 401.649963,123.612975 401.143082,122.883926 C400.634335,122.15581 400.358025,121.260602 400.314151,120.200167 L390.903727,120.200167 C390.903727,122.7187 391.533827,124.94972 392.79216,126.893227 C394.051426,128.837669 395.818506,130.33964 398.094333,131.400074 C400.369226,132.460509 402.985774,132.989793 405.946776,132.989793 C410.45269,132.989793 414.074597,131.896686 416.815297,129.70954 C419.553198,127.523327 420.923548,124.596864 420.923548,120.929216 C420.923548,120.09095 420.867539,119.295624 420.757388,118.544172 C420.646304,117.79272 420.437204,117.129948 420.128222,116.555857 C419.81924,115.981766 419.509324,115.452482 419.201275,114.965205 C418.890426,114.479795 418.461025,114.037325 417.908404,113.639662 C417.355783,113.241999 416.891843,112.900345 416.517517,112.612833 C416.14039,112.326254 415.588703,112.049943 414.859654,111.784835 C414.131539,111.519726 413.556515,111.310626 413.136448,111.154735 C412.716382,111.000711 412.086282,110.834551 411.248016,110.658123 C410.408816,110.481695 409.812322,110.359409 409.459466,110.293132 C409.104743,110.226855 408.508249,110.105502 407.669982,109.929074 C406.697295,109.752646 405.96918,109.620092 405.482836,109.531411 C404.996492,109.443664 404.399998,109.298975 403.693353,109.100143 C402.985774,108.901312 402.467692,108.692212 402.136306,108.470977 C401.80492,108.250675 401.517408,107.951961 401.274703,107.576702 C401.031998,107.201442 400.910645,106.792578 400.910645,106.351041 C400.910645,105.289673 401.329778,104.451407 402.168978,103.832509 C403.008178,103.214544 404.179696,102.904629 405.681668,102.904629 C409.260634,102.904629 411.049184,104.318853 411.049184,107.145433 L420.260776,107.145433 C420.260776,103.5674 418.945501,100.68481 416.318685,98.4976641 C413.689069,96.3105177 410.221186,95.2174113 405.914104,95.2174113 C401.606089,95.2174113 398.127005,96.2778459 395.475918,98.3977816 C392.825765,100.518651 391.501155,103.258418 391.501155,106.615216 C391.501155,108.250675 391.786801,109.686369 392.362759,110.922298 C392.935916,112.160094 393.608956,113.132782 394.383745,113.839427 C395.155734,114.546072 396.193765,115.175238 397.497838,115.726926 C398.800045,116.28048 399.926756,116.666941 400.877974,116.887243 C401.82639,117.108478 403.030581,117.328779 404.489612,117.550014 C406.785976,117.947677 408.508249,118.410684 409.658297,118.940901 C410.805546,119.472052 411.381504,120.289782 411.381504,121.393156 C411.381504,122.144609 411.137865,122.796178 410.651521,123.348799 C410.165178,123.90142 409.547213,124.309351 408.796694,124.57446" id="Fill-39" fill="#000000" mask="url(#mask-2)"></path>
            <polygon id="Fill-40" fill="#000000" mask="url(#mask-2)" points="207.081312 177.965661 203.829064 185.20014 200.575882 177.965661 198.858276 177.965661 197.125735 188.604546 198.904017 188.604546 200.151148 180.899593 203.61623 188.438386 204.056833 188.438386 207.506979 180.899593 208.753177 188.604546 210.531458 188.604546 208.813853 177.965661"></polygon>
            <path d="M219.293579,185.892037 C219.06581,186.301835 218.748426,186.621085 218.343295,186.848855 C217.938165,187.077558 217.477025,187.191442 216.96081,187.191442 C216.18042,187.191442 215.540051,186.938469 215.036905,186.431589 C214.535626,185.924708 214.285453,185.28154 214.285453,184.50115 C214.285453,183.721693 214.535626,183.077591 215.036905,182.570711 C215.540051,182.06383 216.18042,181.810857 216.96081,181.810857 C217.740267,181.810857 218.380635,182.06383 218.883781,182.570711 C219.38506,183.077591 219.635233,183.721693 219.635233,184.50115 C219.635233,185.017365 219.521349,185.482238 219.293579,185.892037 M219.202098,180.75509 C218.528125,180.385431 217.78134,180.199669 216.96081,180.199669 C216.139346,180.199669 215.391628,180.385431 214.718588,180.75509 C214.044615,181.125682 213.518131,181.639096 213.137271,182.297201 C212.757344,182.956238 212.567847,183.690888 212.567847,184.50115 C212.567847,185.738012 212.986047,186.763908 213.822446,187.579771 C214.657912,188.3947 215.703411,188.802631 216.96081,188.802631 C218.217275,188.802631 219.262774,188.3947 220.09824,187.579771 C220.934639,186.763908 221.352839,185.738012 221.352839,184.50115 C221.352839,183.690888 221.162408,182.956238 220.783415,182.297201 C220.402555,181.639096 219.876071,181.125682 219.202098,180.75509" id="Fill-41" fill="#000000" mask="url(#mask-2)"></path>
            <polygon id="Fill-42" fill="#000000" mask="url(#mask-2)" points="227.006654 186.492732 224.544131 180.398033 222.765849 180.398033 226.231865 188.6052 227.781443 188.6052 231.155978 180.398033 229.423437 180.398033"></polygon>
            <polygon id="Fill-43" fill="#000000" mask="url(#mask-2)" points="233.450568 179.121031 235.198044 179.121031 235.198044 177.389424 233.450568 177.389424"></polygon>
            <polygon id="Fill-44" fill="#000000" mask="url(#mask-2)" points="233.480439 188.6052 235.168173 188.6052 235.168173 180.398033 233.480439 180.398033"></polygon>
            <path d="M247.660858,180.215444 C247.124106,180.215444 246.617226,180.342398 246.141151,180.595371 C245.664142,180.849278 245.279547,181.1984 244.986434,181.643671 C244.742796,181.1984 244.40861,180.849278 243.983876,180.595371 C243.557275,180.342398 243.070931,180.215444 242.523911,180.215444 C242.027299,180.215444 241.555891,180.323728 241.109687,180.542163 C240.664417,180.759664 240.28449,181.065846 239.97084,181.461642 L239.681461,180.397473 L238.481004,180.397473 L238.481004,188.604639 L240.168738,188.604639 L240.168738,184.122063 C240.168738,183.422886 240.352634,182.846928 240.722292,182.396056 C241.092884,181.946118 241.551224,181.719282 242.098244,181.719282 C242.615392,181.719282 243.011188,181.900378 243.284698,182.258835 C243.557275,182.619158 243.694496,183.133506 243.694496,183.802812 L243.694496,188.604639 L245.350492,188.604639 L245.350492,184.122063 C245.350492,183.422886 245.533454,182.846928 245.897512,182.396056 C246.262503,181.946118 246.723643,181.719282 247.280931,181.719282 C247.615117,181.719282 247.901696,181.800495 248.139734,181.962921 C248.377771,182.125347 248.560734,182.363384 248.687687,182.677968 C248.813707,182.991617 248.877184,183.366877 248.877184,183.802812 L248.877184,188.604639 L250.563984,188.604639 L250.563984,183.391147 C250.563984,182.450198 250.295142,181.684744 249.75839,181.096651 C249.221638,180.508557 248.522461,180.215444 247.660858,180.215444" id="Fill-45" fill="#000000" mask="url(#mask-2)"></path>
            <path d="M254.89627,183.710584 C255.037226,183.093553 255.329406,182.606276 255.770009,182.252487 C256.210612,181.897764 256.744563,181.719469 257.372796,181.719469 C257.789128,181.719469 258.166255,181.798815 258.505108,181.95564 C258.844896,182.112465 259.130541,182.340234 259.363911,182.639882 C259.597281,182.938596 259.764375,183.296119 259.86519,183.710584 L254.89627,183.710584 Z M259.561809,180.785055 C258.923308,180.394859 258.193326,180.199762 257.372796,180.199762 C256.166738,180.199762 255.161379,180.610494 254.356718,181.431957 C253.551124,182.252487 253.14786,183.275582 253.14786,184.501243 C253.14786,185.726904 253.551124,186.750933 254.356718,187.571463 C255.161379,188.392926 256.166738,188.802724 257.372796,188.802724 C258.28574,188.802724 259.096002,188.556285 259.805448,188.065274 C260.514893,187.574263 261.030175,186.892822 261.355026,186.021884 L259.577678,186.021884 C259.434856,186.274857 259.255627,186.490491 259.038126,186.666919 C258.819692,186.844281 258.569519,186.981502 258.28574,187.076718 C258.001029,187.1738 257.697647,187.222341 257.372796,187.222341 C256.704423,187.222341 256.144335,187.030043 255.693463,186.644516 C255.242592,186.258988 254.966281,185.738106 254.865465,185.079068 L261.523053,185.079068 C261.542656,184.856899 261.552924,184.668336 261.552924,184.516179 C261.552924,183.726454 261.38023,183.003939 261.035776,182.350502 C260.691321,181.697066 260.20031,181.17525 259.561809,180.785055 L259.561809,180.785055 Z" id="Fill-46" fill="#000000" mask="url(#mask-2)"></path>
            <path d="M268.604908,180.215444 C268.006546,180.215444 267.462327,180.332129 266.971316,180.564566 C266.480305,180.797937 266.077041,181.122788 265.763391,181.537254 L265.429205,180.397473 L264.25862,180.397473 L264.25862,188.604639 L265.94542,188.604639 L265.94542,184.212611 C265.94542,183.482628 266.152653,182.8852 266.568052,182.41846 C266.984384,181.952653 267.510868,181.719282 268.149369,181.719282 C268.767333,181.719282 269.235941,181.915314 269.555192,182.304575 C269.874442,182.69477 270.034067,183.26046 270.034067,183.999777 L270.034067,188.604639 L271.720868,188.604639 L271.720868,183.664657 C271.720868,182.642495 271.43989,181.810764 270.877934,181.172263 C270.315045,180.534695 269.557992,180.215444 268.604908,180.215444" id="Fill-47" fill="#000000" mask="url(#mask-2)"></path>
            <path d="M277.37459,186.675041 C277.111348,186.411799 276.978794,186.035606 276.978794,185.550196 L276.978794,181.841475 L279.395576,181.841475 L279.395576,180.39738 L276.964792,180.39738 L276.964792,178.48281 L276.675412,178.48281 L273.817093,181.522225 L273.817093,181.841475 L275.292927,181.841475 L275.292927,185.686484 C275.292927,186.284845 275.408678,186.803861 275.642049,187.244464 C275.875419,187.685067 276.208672,188.022054 276.644608,188.255424 C277.080543,188.487861 277.596758,188.604546 278.19512,188.604546 L279.441317,188.604546 L279.441317,187.069903 L278.51437,187.069903 C278.016825,187.069903 277.637831,186.938282 277.37459,186.675041" id="Fill-48" fill="#000000" mask="url(#mask-2)"></path>
            <path d="M288.021129,185.892037 C287.79336,186.301835 287.475976,186.621085 287.070845,186.848855 C286.665714,187.077558 286.204575,187.191442 285.68836,187.191442 C284.907969,187.191442 284.267601,186.938469 283.764455,186.431589 C283.263176,185.924708 283.013003,185.28154 283.013003,184.50115 C283.013003,183.721693 283.263176,183.077591 283.764455,182.570711 C284.267601,182.06383 284.907969,181.810857 285.68836,181.810857 C286.467816,181.810857 287.108184,182.06383 287.611331,182.570711 C288.11261,183.077591 288.362783,183.721693 288.362783,184.50115 C288.362783,185.017365 288.248898,185.482238 288.021129,185.892037 M287.929648,180.75509 C287.255675,180.385431 286.50889,180.199669 285.68836,180.199669 C284.866896,180.199669 284.119178,180.385431 283.446138,180.75509 C282.772165,181.125682 282.245681,181.639096 281.864821,182.297201 C281.485827,182.956238 281.295397,183.690888 281.295397,184.50115 C281.295397,185.738012 281.713597,186.763908 282.549996,187.579771 C283.385462,188.3947 284.430961,188.802631 285.68836,188.802631 C286.944825,188.802631 287.990324,188.3947 288.82579,187.579771 C289.662189,186.763908 290.080388,185.738012 290.080388,184.50115 C290.080388,183.690888 289.889958,182.956238 289.510965,182.297201 C289.130105,181.639096 288.603621,181.125682 287.929648,180.75509" id="Fill-49" fill="#000000" mask="url(#mask-2)"></path>
            <path d="M304.579498,186.454459 C303.981136,186.884794 303.277292,187.099494 302.46703,187.099494 C301.403795,187.099494 300.521655,186.743838 299.822478,186.028792 C299.1233,185.313745 298.773245,184.402667 298.773245,183.292758 C298.773245,182.183783 299.1233,181.268971 299.822478,180.550191 C300.521655,179.830477 301.403795,179.471086 302.46703,179.471086 C303.257688,179.471086 303.945664,179.669918 304.533757,180.070381 C305.12185,180.471778 305.541917,181.026266 305.795824,181.734778 L307.558236,181.734778 C307.376207,180.945053 307.044822,180.250543 306.563145,179.653115 C306.081469,179.054754 305.486841,178.594548 304.777396,178.269696 C304.06795,177.945778 303.297828,177.783353 302.46703,177.783353 C300.896915,177.783353 299.591908,178.303302 298.553877,179.341333 C297.514912,180.380297 296.995897,181.694639 296.995897,183.28529 C296.995897,184.876876 297.514912,186.191217 298.553877,187.229248 C299.591908,188.268213 300.896915,188.787228 302.46703,188.787228 C303.753367,188.787228 304.863276,188.415703 305.795824,187.670785 C306.727438,186.925867 307.330467,185.929843 307.603977,184.684579 L305.825695,184.684579 C305.592325,185.433231 305.177859,186.024124 304.579498,186.454459" id="Fill-50" fill="#000000" mask="url(#mask-2)"></path>
            <polygon id="Fill-51" fill="#000000" mask="url(#mask-2)" points="310.325354 179.455217 311.631294 179.455217 312.756139 177.144851 310.993727 177.144851"></polygon>
            <polygon id="Fill-52" fill="#000000" mask="url(#mask-2)" points="310.203255 188.6052 311.890989 188.6052 311.890989 180.398033 310.203255 180.398033"></polygon>
            <polygon id="Fill-53" fill="#000000" mask="url(#mask-2)" points="318.410328 186.492732 315.947805 180.398033 314.169523 180.398033 317.635539 188.6052 319.185117 188.6052 322.559652 180.398033 320.827111 180.398033"></polygon>
            <polygon id="Fill-54" fill="#000000" mask="url(#mask-2)" points="324.854242 179.121031 326.601718 179.121031 326.601718 177.389424 324.854242 177.389424"></polygon>
            <polygon id="Fill-55" fill="#000000" mask="url(#mask-2)" points="324.884113 188.6052 326.571847 188.6052 326.571847 180.398033 324.884113 180.398033"></polygon>
            <path d="M335.014251,186.780804 C334.594184,187.054314 334.115308,187.190602 333.578557,187.190602 C332.848574,187.190602 332.235277,186.932961 331.738665,186.415813 C331.242053,185.899598 330.993747,185.261097 330.993747,184.501243 C330.993747,183.995296 331.107632,183.536024 331.336335,183.126225 C331.564104,182.715494 331.875887,182.394376 332.271683,182.161006 C332.665612,181.927635 333.101548,181.81095 333.578557,181.81095 C334.115308,181.81095 334.596984,181.945372 335.021718,182.213281 C335.447386,182.483057 335.766636,182.849915 335.97947,183.315722 L337.651335,183.315722 C337.428233,182.372906 336.946557,181.618653 336.207239,181.051097 C335.466989,180.48354 334.596984,180.199762 333.593492,180.199762 C332.366898,180.199762 331.341002,180.610494 330.515805,181.431957 C329.689674,182.251553 329.277075,183.272782 329.277075,184.493775 C329.277075,185.714769 329.689674,186.737864 330.515805,187.563995 C331.341002,188.390125 332.362231,188.802724 333.578557,188.802724 C334.591384,188.802724 335.469789,188.511478 336.214707,187.928052 C336.959625,187.34556 337.447836,186.573571 337.681206,185.611152 L335.97947,185.611152 C335.756368,186.117099 335.434317,186.507294 335.014251,186.780804" id="Fill-56" fill="#000000" mask="url(#mask-2)"></path>
            <path d="M346.368275,185.892037 C346.140506,186.301835 345.823122,186.621085 345.417991,186.848855 C345.012861,187.077558 344.551721,187.191442 344.035506,187.191442 C343.255116,187.191442 342.614747,186.938469 342.111601,186.431589 C341.610322,185.924708 341.360149,185.28154 341.360149,184.50115 C341.360149,183.721693 341.610322,183.077591 342.111601,182.570711 C342.614747,182.06383 343.255116,181.810857 344.035506,181.810857 C344.814963,181.810857 345.455331,182.06383 345.958477,182.570711 C346.459756,183.077591 346.709929,183.721693 346.709929,184.50115 C346.709929,185.017365 346.596045,185.482238 346.368275,185.892037 M346.276794,180.75509 C345.602821,180.385431 344.856036,180.199669 344.035506,180.199669 C343.214042,180.199669 342.466324,180.385431 341.793284,180.75509 C341.119311,181.125682 340.592827,181.639096 340.211967,182.297201 C339.832974,182.956238 339.642543,183.690888 339.642543,184.50115 C339.642543,185.738012 340.060743,186.763908 340.897142,187.579771 C341.732608,188.3947 342.778107,188.802631 344.035506,188.802631 C345.291971,188.802631 346.33747,188.3947 347.172936,187.579771 C348.009335,186.763908 348.427535,185.738012 348.427535,184.50115 C348.427535,183.690888 348.237104,182.956238 347.858111,182.297201 C347.477251,181.639096 346.950767,181.125682 346.276794,180.75509" id="Fill-57" fill="#000000" mask="url(#mask-2)"></path>
            <path d="M175.789624,34.101 C175.690675,33.4755676 175.465706,32.861337 175.070843,32.3115166 L153.139637,1.75027716 C152.405921,0.728115299 151.251204,0.116685144 150.005007,0.0326718404 C149.916326,0.0270709534 149.830446,0.00373392461 149.740832,0.000933481153 L149.740832,11.4146075 L150.005007,11.7833326 L163.937213,31.1978736 L150.005007,31.1978736 L149.740832,31.1978736 L149.740832,39.5571973 L150.005007,39.5571973 L167.650601,39.5571973 L167.630998,152.379596 L175.988455,152.379596 L176.008999,35.3789357 C176.009925,34.9383326 175.922178,34.5117317 175.789624,34.101" id="Fill-58" fill="#C61B37" mask="url(#mask-2)"></path>
            <path d="M13.9860681,135.917936 C14.1027532,135.94314 14.2203718,135.96181 14.3379905,135.98608 C12.3319395,135.571615 10.3361568,135.046065 8.3581102,134.349688 L8.3581102,121.563797 C10.0962521,122.958418 11.9949528,124.138338 13.9860681,125.167967 L13.9860681,116.719963 C14.0122055,116.739566 14.0411435,116.756369 14.0672809,116.775972 C11.8418619,115.143313 9.87501707,113.157799 8.3581102,110.820362 L8.3581102,52.6766215 L13.9860681,52.6766215 L13.9860681,44.3172978 L4.17891508,44.3172978 C1.87041619,44.3172978 -0.000280044346,46.187994 -0.000280044346,48.4964929 L-0.000280044346,152.379876 L8.3581102,152.379876 L8.3581102,142.021036 C10.2185381,142.59046 12.0976357,143.030129 13.9860681,143.384852 L13.9860681,135.917936 Z" id="Fill-59" fill="#44C7F4" mask="url(#mask-2)"></path>
            <path d="M64.9355627,48.9236539 C64.9355627,46.6160885 63.0648665,44.7444588 60.7563676,44.7444588 L51.103239,44.7444588 L51.103239,53.1037825 L56.5771725,53.1037825 L56.5771725,67.6931594 L51.103239,73.5348845 L51.103239,85.7588202 L63.5092035,72.519257 C63.7071016,72.344696 63.8863299,72.1533324 64.0478222,71.9442326 L64.9308953,71.0004831 L64.9355627,48.9236539 Z" id="Fill-60" fill="#7EC252" mask="url(#mask-2)"></path>
            <path d="M65.1037761,123.456803 C60.4737095,123.133819 55.7848337,123.227167 51.1034257,123.360655 L51.1034257,130.57273 C55.7876341,130.417772 60.4653082,130.319757 65.1037761,130.719286 L65.1037761,123.456803 Z" id="Fill-61" fill="#7EC252" mask="url(#mask-2)"></path>
            <path d="M65.1037761,139.357441 C60.5717251,138.031898 55.8212395,137.43447 51.1034257,137.205767 L51.1034257,144.497188 C54.7589379,144.683884 58.394847,145.116086 61.9514102,146.040233 C63.0221131,146.319343 64.0694789,146.661931 65.1037761,147.036257 L65.1037761,139.357441 Z" id="Fill-62" fill="#7EC252" mask="url(#mask-2)"></path>
            <path d="M27.3406361,63.3775827 L27.3406361,48.4969596 C27.3406361,46.1884608 25.4699399,44.316831 23.161441,44.316831 L13.9862548,44.316831 L13.9862548,52.6761548 L18.9822459,52.6761548 L18.9822459,67.5577113 C18.9822459,69.8652767 20.8538756,71.7369064 23.161441,71.7369064 L32.4691816,71.7369064 L32.4691816,63.3775827 L27.3406361,63.3775827 Z" id="Fill-63" fill="#3D71B7" mask="url(#mask-2)"></path>
            <path d="M32.4688082,123.116736 C32.4688082,123.117669 32.5406863,123.125137 32.4688082,123.116736 C28.3838947,122.65653 24.3717927,121.775324 20.3120831,120.200541 C18.0735953,119.332403 15.9303226,118.159951 13.9858814,116.71959 L13.9858814,125.188131 C19.4728836,128.038982 25.7412095,129.611898 31.8909834,130.34188 C32.0832805,130.364284 32.2755776,130.380153 32.4688082,130.397889 L32.4688082,123.116736 Z" id="Fill-64" fill="#3D71B7" mask="url(#mask-2)"></path>
            <path d="M32.4688082,137.317225 L32.4688082,137.317225 C32.4874778,137.317225 32.5061475,137.316291 32.5248171,137.316291 C32.5397528,137.316291 32.555622,137.315358 32.5705576,137.315358 C26.3115665,137.403105 20.0899146,137.235078 13.9858814,135.917936 L13.9858814,143.385786 C20.0563093,144.525566 26.2508902,144.67959 32.4688082,144.602112 L32.4688082,137.317225 Z" id="Fill-65" fill="#3D71B7" mask="url(#mask-2)"></path>
            <path d="M167.630812,152.380623 L167.628011,169.918867 C167.628011,181.599517 165.079608,192.689273 160.541956,202.692457 C160.356193,202.707393 160.169497,202.724195 159.984667,202.765269 C154.440723,203.987195 148.534588,202.9613 143.314561,200.45957 C139.212845,198.492725 135.546131,195.830437 132.30135,192.695807 L132.30135,202.199579 C139.351933,207.459745 147.72806,210.836147 156.482246,210.487025 C154.837452,213.251996 153.028366,215.906816 151.072723,218.443084 C150.84402,218.454286 150.614384,218.482291 150.384747,218.531765 C145.371953,219.638874 140.283548,218.939696 135.372503,217.080202 C134.332605,216.686273 133.30951,216.219532 132.30135,215.711719 L132.30135,223.610836 C136.118355,225.134277 140.130457,226.07896 144.229373,226.24792 C141.381322,229.090371 138.313902,231.708785 135.066322,234.098497 C134.145909,234.22265 133.22363,234.275858 132.30135,234.289861 L132.30135,245.881829 C158.40335,230.60261 175.985468,202.287326 175.985468,169.919801 L175.989202,152.380623 L167.630812,152.380623 Z" id="Fill-66" fill="#0090C7" mask="url(#mask-2)"></path>
            <path d="M107.349306,65.3854073 L123.119536,82.6165359 C123.232488,82.7406889 123.362241,82.837771 123.486394,82.9451213 L123.486394,70.6362388 L107.349306,53.0046468 L107.349306,65.3854073 Z" id="Fill-67" fill="#ED3C95" mask="url(#mask-2)"></path>
            <path d="M150.005474,50.0586736 C149.91866,50.0568067 149.834647,50.0456049 149.747833,50.0456049 C149.745966,50.0456049 149.743166,50.0456049 149.741299,50.0456049 L149.741299,54.2248 C149.743166,54.2248 149.745966,54.2238665 149.747833,54.2238665 C149.83558,54.2238665 149.917727,54.2462701 150.005474,54.250004 C152.891798,54.3872257 155.203097,56.7592013 155.203097,59.6800639 L155.203097,94.4849086 C155.203097,95.6386914 156.139378,96.5740395 157.293161,96.5740395 C158.446944,96.5740395 159.383225,95.6386914 159.383225,94.4849086 L159.383225,59.6800639 C159.383225,54.4535029 155.198429,50.1968288 150.005474,50.0586736" id="Fill-68" fill="#C61B37" mask="url(#mask-2)"></path>
            <path d="M149.741112,31.1980603 L135.52046,31.1980603 L149.728977,11.3979916 L149.741112,11.4147942 L149.741112,0.000186696231 C149.737378,0.000186696231 149.732711,0.000186696231 149.728977,0.000186696231 C148.376363,0.000186696231 147.106828,0.651756541 146.318037,1.75046386 L124.387764,32.3117033 C123.950895,32.920333 123.719391,33.6073752 123.642846,34.3028186 C123.559766,34.6164683 123.504691,34.9413197 123.494422,35.2783064 L123.494422,144.701901 C123.537363,146.97306 125.384722,148.802683 127.665216,148.802683 C129.973715,148.802683 131.844411,146.931054 131.844411,144.622555 L131.844411,39.557384 L149.741112,39.557384 L149.741112,31.1980603 Z" id="Fill-69" fill="#EE4050" mask="url(#mask-2)"></path>
            <path d="M149.741112,50.0458849 C144.431471,50.0496188 140.113187,54.3688361 140.113187,59.6794104 L140.113187,85.6236521 C140.113187,86.7783683 141.048535,87.7127829 142.202318,87.7127829 C143.357034,87.7127829 144.292382,86.7783683 144.292382,85.6236521 L144.292382,59.6794104 C144.292382,56.6736011 146.736236,54.228814 149.741112,54.22508 L149.741112,50.0458849 Z" id="Fill-70" fill="#EE4050" mask="url(#mask-2)"></path>
            <path d="M51.1033324,44.7444588 L42.0513656,44.7444588 C39.7438002,44.7444588 37.8721705,46.6160885 37.8721705,48.9236539 L37.8721705,63.3776761 L32.4691816,63.3776761 L32.4691816,71.7369998 L42.0513656,71.7369998 C44.358931,71.7369998 46.2296273,69.8653701 46.2296273,67.5568712 L46.2296273,53.1037825 L51.1033324,53.1037825 L51.1033324,44.7444588 Z" id="Fill-71" fill="#1A8E46" mask="url(#mask-2)"></path>
            <path d="M51.1033324,73.5346978 L34.7095364,91.0300016 C33.1319532,92.7130681 33.2178335,95.3585537 34.9018335,96.9370703 C35.7083612,97.6922565 36.734257,98.0665825 37.7592193,98.0665825 C38.8737958,98.0665825 39.9865053,97.6222455 40.8089022,96.7447732 L51.1033324,85.7586335 L51.1033324,73.5346978 Z" id="Fill-72" fill="#1A8E46" mask="url(#mask-2)"></path>
            <path d="M51.1033324,130.572263 L51.1033324,123.363922 C46.8979998,123.483407 42.6982681,123.629964 38.5536118,123.526347 C36.4850175,123.474073 34.4658978,123.340585 32.4691816,123.116549 L32.4691816,130.397702 C38.7291062,131.077276 45.0599754,130.770161 51.3805763,130.563862 C51.2881616,130.567596 51.195747,130.569463 51.1033324,130.572263" id="Fill-73" fill="#1A8E46" mask="url(#mask-2)"></path>
            <path d="M51.1033324,144.497002 L51.1033324,137.227984 C50.3397448,137.188778 49.5733568,137.140237 48.8125696,137.121567 C43.3722415,136.980611 37.9067093,137.24292 32.4691816,137.317598 L32.4691816,144.605285 C36.162033,144.557678 39.8623523,144.431658 43.5486694,144.38405 C46.1624166,144.350445 48.7854987,144.372849 51.3983124,144.517538 C51.2993634,144.512871 51.2013479,144.502602 51.1033324,144.497002" id="Fill-74" fill="#1A8E46" mask="url(#mask-2)"></path>
            <path d="M85.9780949,36.3176443 L64.9308953,58.7716 L64.9308953,71.0002031 L88.9885716,45.3294714 L88.9885716,34.999569 C87.8478576,35.0107707 86.7594186,35.4831122 85.9780949,36.3176443" id="Fill-75" fill="#F9A51A" mask="url(#mask-2)"></path>
            <path d="M82.8299297,149.508115 C78.3594885,145.437204 73.2776171,142.219494 67.5843155,140.157434 C66.766586,139.861521 65.9385882,139.597346 65.1040561,139.353707 L65.1040561,147.028789 C68.6512845,148.302057 71.9810118,150.102743 74.9606836,152.379503 L85.7470583,152.379503 C84.8089098,151.393747 83.8418233,150.430394 82.8299297,149.508115" id="Fill-76" fill="#F9A51A" mask="url(#mask-2)"></path>
            <path d="M79.4788257,104.263871 L79.4788257,126.347234 C74.8039521,124.614693 69.9881228,123.792296 65.1041494,123.451576 L65.1041494,130.711259 C67.6497525,130.929693 70.1841539,131.299352 72.7008191,131.895846 C79.0606262,133.402485 84.3992049,136.588456 88.9881982,140.722844 L88.9881982,131.410436 C87.6206483,130.444283 86.2148257,129.529471 84.7277902,128.725744 L83.5637392,128.17499 L83.5637392,104.263871 C83.5637392,101.264596 85.9935907,98.8235424 88.9881982,98.8030058 L88.9881982,94.7171588 C83.7411007,94.7386288 79.4788257,99.0121055 79.4788257,104.263871" id="Fill-77" fill="#F9A51A" mask="url(#mask-2)"></path>
            <path d="M89.6778541,46.0763497 L107.349586,65.3854073 L107.349586,53.0046468 L92.110506,36.35321 C91.468271,35.6521656 90.6057344,35.2236978 89.6778541,35.0790082 L89.6778541,35.0640725 C89.5238297,35.039802 89.3679384,35.0248663 89.212047,35.012731 L89.2092466,35.012731 C89.1560381,35.0089971 89.1056302,34.9959284 89.0524217,34.9949949 L89.0281512,34.9949949 C89.014149,34.9949949 89.0020137,34.9987288 88.9880115,34.9996623 L88.9880115,45.3295647 L88.9917455,45.3258308 L89.6778541,46.0763497 Z" id="Fill-78" fill="#F16522" mask="url(#mask-2)"></path>
            <path d="M99.8185399,141.491472 L98.575143,140.136058 L98.575143,104.264244 C98.575143,98.9984767 94.2923315,94.7156652 89.0265643,94.7156652 C89.0134956,94.7156652 89.0013603,94.7175322 88.9882916,94.7175322 L88.9882916,98.8033792 C89.0013603,98.8033792 89.0134956,98.8015122 89.0265643,98.8015122 C92.0398415,98.8015122 94.4902295,101.2519 94.4902295,104.264244 L94.4902295,135.845778 C92.9658548,134.438089 91.3574667,133.129348 89.6781341,131.912089 L89.6781341,131.88035 C89.5558481,131.79167 89.4270277,131.71139 89.3038082,131.624576 C89.2711364,131.600306 89.241265,131.574169 89.2085931,131.551765 L89.2085931,131.558299 C89.1367151,131.507891 89.0611031,131.461217 88.9882916,131.409876 L88.9882916,140.723217 C89.1572517,140.875375 89.3327461,141.019131 89.4998392,141.173155 C93.0311984,144.448741 96.1088858,148.285348 98.8337173,152.379596 L107.43668,152.379596 C105.158052,148.59153 102.648855,144.895878 99.8185399,141.491472" id="Fill-79" fill="#F16522" mask="url(#mask-2)"></path>
            <path d="M128.670295,188.805525 C119.987054,178.422414 115.093745,165.4965 108.351211,153.89613 C108.055298,153.387383 107.740714,152.886103 107.4364,152.380157 L98.8343707,152.380157 C99.6156945,153.554476 100.374615,154.746531 101.10273,155.954456 C108.36428,168.007565 113.473222,181.257396 122.244211,192.384491 C125.109998,196.0204 128.515337,199.379999 132.301537,202.200979 L132.301537,192.698141 C131.025468,191.46968 129.812876,190.171208 128.670295,188.805525" id="Fill-80" fill="#0D6A89" mask="url(#mask-2)"></path>
            <path d="M102.568389,177.978357 C99.4477612,171.938734 96.1292357,165.872973 92.1796769,160.290756 L92.1796769,160.265552 C91.0781692,158.713173 89.921586,157.203734 88.710861,155.739102 L88.710861,168.045184 C89.9225195,169.935483 91.0725683,171.869656 92.1796769,173.836501 L92.1796769,173.841168 C99.7007346,187.202084 105.338027,201.956687 116.312965,212.897086 C120.861819,217.432871 126.34042,221.227472 132.30163,223.605049 L132.30163,215.711532 C128.587309,213.839902 125.12036,211.266295 122.136954,208.403308 C113.361298,199.980508 108.073127,188.632177 102.568389,177.978357" id="Fill-81" fill="#0D6A89" mask="url(#mask-2)"></path>
            <path d="M92.1793035,199.273396 L92.1793035,199.262194 C91.9674033,198.855196 91.7508357,198.447265 91.539869,198.0412 C90.59892,196.218112 89.6607714,194.393156 88.7104876,192.575668 L88.7104876,208.251617 C89.8241306,210.304342 90.9713789,212.332797 92.1793035,214.318311 L92.1793035,214.320178 C95.6863922,220.081624 99.7012947,225.483679 104.860645,230.079207 C110.488603,235.092001 117.260075,238.988351 124.506689,240.651815 C121.849069,242.029633 119.106501,243.265562 116.284587,244.340932 C109.336687,244.159837 102.508273,240.874917 97.1631594,236.411943 C95.3634078,234.909039 93.718614,233.266112 92.1793035,231.534504 L92.1793035,231.502766 C90.9545763,230.126815 89.803594,228.687387 88.7104876,227.203152 L88.7104876,238.009129 C89.8091949,239.125573 90.9573767,240.207478 92.1793035,241.23244 C92.2091749,241.257644 92.2371794,241.284715 92.2670508,241.308985 C95.5435696,244.045019 99.1766783,246.387123 103.039423,248.107529 C99.4949953,248.788036 95.870288,249.235174 92.1793035,249.432138 L92.1793035,249.411602 C91.0292548,249.477879 89.8736051,249.522686 88.7104876,249.538555 L88.7104876,257.898812 C89.8726716,257.883877 91.0283213,257.843737 92.1793035,257.783994 L92.1793035,257.80173 C103.110368,257.284582 113.524284,254.762316 123.065394,250.598056 C123.179279,250.550449 124.02408,250.157453 124.731658,249.844737 C127.327669,248.647081 129.849935,247.31687 132.301257,245.879309 L132.301257,234.290141 C124.365734,234.404959 116.455414,230.560883 110.366317,225.240041 C102.30384,218.195059 97.0530086,208.671684 92.1793035,199.273396" id="Fill-82" fill="#0D6A89" mask="url(#mask-2)"></path>
            <path d="M23.2142761,173.302736 C18.3760432,178.795339 14.4535554,184.161923 10.9511341,190.084861 C9.5667816,184.79949 8.7145133,179.303153 8.45313858,173.653725 C13.3473803,173.544508 18.2957639,173.252328 23.2142761,173.302736 M32.0235377,173.889896 C33.6767328,174.114865 35.3233936,174.407978 36.9551186,174.807508 C39.3924379,175.406803 41.691602,176.273073 43.8675466,177.348444 C44.6946109,177.756375 45.5067395,178.18951 46.2964645,178.658118 C45.4656663,179.42824 44.6722073,180.234767 43.8675466,181.031027 C34.3936463,190.409712 26.7717727,201.528406 21.5368104,213.726204 C18.5151319,209.157747 15.960194,204.259772 13.9205377,199.102288 C18.7195643,189.828153 23.8910499,182.607676 31.6286752,174.402377 C31.7798991,174.241818 31.907786,174.068191 32.0235377,173.889896 M41.8036197,160.063173 C42.4934623,160.136918 43.1805044,160.245202 43.8675466,160.350685 L43.8675466,160.331082 C46.3524734,160.709142 48.8075288,161.297235 51.1823049,162.111231 L51.1823049,154.522029 C49.6093891,154.065557 48.0019346,153.681896 46.3543404,153.400918 C45.5254091,153.259029 44.6974113,153.13861 43.8675466,153.032193 C32.0739457,151.520887 20.1785953,153.331841 8.3579235,152.42263 L8.3579235,152.37969 L-0.000466740576,152.37969 L-0.000466740576,169.918867 C-0.000466740576,202.362005 17.6656641,230.73143 43.8675466,245.986379 L43.8675466,245.999448 C46.2385887,247.379133 48.6796419,248.650535 51.1823049,249.808985 L51.1823049,240.490042 C48.6637727,239.168233 46.221786,237.715736 43.8675466,236.141887 L43.8675466,236.144688 C43.5370942,235.926253 43.2019745,235.714353 42.8761896,235.490317 C43.1749035,234.313198 43.5090898,233.144479 43.8675466,231.983229 L43.8675466,232.001898 C45.6308925,226.275925 48.103684,220.754384 51.1823049,215.580098 L51.1823049,203.281484 C48.4574734,206.77177 46.0070854,210.472089 43.8675466,214.336701 L43.8675466,214.348836 C40.948551,219.618337 38.593378,225.186552 36.9009767,230.941464 C33.075571,227.734956 29.5535466,224.179326 26.388112,220.318448 C30.421684,209.660894 36.3707594,199.776262 43.8675466,191.170499 L43.8675466,191.150896 C46.1620432,188.518479 48.6077639,186.011149 51.1823049,183.633572 L51.1823049,173.500634 C48.9176796,172.036936 46.4924956,170.764601 43.8675466,169.742439 L43.8675466,169.757375 C43.0208792,169.425056 42.1676774,169.100204 41.2780698,168.821093 C30.6401186,165.487632 19.3636663,166.529397 8.3579235,166.735696 L8.3579235,159.703783 C19.4850188,160.541116 30.6802583,158.869251 41.8036197,160.063173" id="Fill-83" fill="#C9DA2A" mask="url(#mask-2)"></path>
            <path d="M92.1793035,199.273396 L92.1793035,199.262194 C91.9674033,198.855196 91.7508357,198.447265 91.539869,198.0412 C90.59892,196.218112 89.6607714,194.393156 88.7104876,192.575668 L88.7104876,208.251617 C89.8241306,210.304342 90.9713789,212.332797 92.1793035,214.318311 L92.1793035,214.320178 C95.6863922,220.081624 99.7012947,225.483679 104.860645,230.079207 C110.488603,235.092001 117.260075,238.988351 124.506689,240.651815 C121.849069,242.029633 119.106501,243.265562 116.284587,244.340932 C109.336687,244.159837 102.508273,240.874917 97.1631594,236.411943 C95.3634078,234.909039 93.718614,233.266112 92.1793035,231.534504 L92.1793035,231.502766 C90.9545763,230.126815 89.803594,228.687387 88.7104876,227.203152 L88.7104876,238.009129 C89.8091949,239.125573 90.9573767,240.207478 92.1793035,241.23244 C92.2091749,241.257644 92.2371794,241.284715 92.2670508,241.308985 C95.5435696,244.045019 99.1766783,246.387123 103.039423,248.107529 C99.4949953,248.788036 95.870288,249.235174 92.1793035,249.432138 L92.1793035,249.411602 C91.0292548,249.477879 89.8736051,249.522686 88.7104876,249.538555 L88.7104876,257.898812 C89.8726716,257.883877 91.0283213,257.843737 92.1793035,257.783994 L92.1793035,257.80173 C103.110368,257.284582 113.524284,254.762316 123.065394,250.598056 C123.179279,250.550449 124.02408,250.157453 124.731658,249.844737 C127.327669,248.647081 129.849935,247.31687 132.301257,245.879309 L132.301257,234.290141 C124.365734,234.404959 116.455414,230.560883 110.366317,225.240041 C102.30384,218.195059 97.0530086,208.671684 92.1793035,199.273396 M102.568015,177.978824 C99.4483213,171.9392 96.1288623,165.87344 92.1793035,160.290289 L92.1793035,160.266019 C91.0787293,158.713639 89.9212126,157.2042 88.7104876,155.738635 L88.7104876,168.045651 C89.9221461,169.935016 91.0721949,171.870123 92.1793035,173.836968 L92.1793035,173.841635 C99.7003612,187.201617 105.338587,201.95622 116.313525,212.897553 C120.862379,217.432404 126.34098,221.227939 132.301257,223.604582 L132.301257,215.711065 C128.586935,213.839435 125.12092,211.266761 122.137514,208.402841 C113.360924,199.980974 108.072754,188.632644 102.568015,177.978824 M132.301257,192.697954 L132.301257,202.200792 C128.515991,199.379812 125.109718,196.020214 122.243931,192.384305 C113.473876,181.257209 108.364,168.007378 101.103383,155.954269 C100.375268,154.746345 99.6163479,153.554289 98.8340907,152.37997 L107.437053,152.37997 C107.740434,152.885917 108.055018,153.387196 108.350931,153.895943 C115.093465,165.496314 119.986774,178.422227 128.670015,188.805338 C129.812596,190.171021 131.026122,191.470427 132.301257,192.697954" id="Fill-84" fill="#0B6989" mask="url(#mask-2)"></path>
            <path d="M88.7106743,168.045557 L88.7106743,155.738542 C87.759457,154.588493 86.7783683,153.463648 85.7478051,152.379876 L74.9614304,152.379876 C75.474845,152.772872 75.9798583,153.176136 76.4727364,153.596202 C81.3987164,157.796868 85.3062685,162.73685 88.7106743,168.045557" id="Fill-85" fill="#31BBAC" mask="url(#mask-2)"></path>
            <path d="M61.5813783,245.031335 C61.5841787,245.012665 61.59258,244.996796 61.5953805,244.977193 C63.2859149,234.910532 67.8973118,225.319947 74.6827863,217.609392 C76.925008,221.835262 79.2801809,225.977118 81.9854093,229.858532 C78.0601211,235.369805 75.5294537,241.725878 74.5913051,248.401202 C70.1171299,247.640415 65.7699082,246.509035 61.5813783,245.031335 L61.5813783,245.031335 Z M88.7102075,249.538182 C88.4712364,249.541916 88.2331987,249.553118 87.9923605,249.553118 C85.8042807,249.553118 83.6423384,249.440166 81.4981322,249.265605 C82.1945091,244.422705 83.8915778,239.77957 86.4913228,235.630246 C87.2045024,236.443308 87.9475534,237.233033 88.7102075,238.00969 L88.7102075,227.202778 C85.2880656,222.557776 82.4418816,217.458169 79.7665246,212.357627 C72.3518838,198.221922 64.7505468,182.27433 51.1823982,173.500541 L51.1823982,183.634412 C51.4736443,183.364636 51.7592896,183.091126 52.0533361,182.825084 C54.6642829,185.086909 57.0278572,187.678253 59.1580612,190.480563 C59.7489548,191.259086 60.30811,192.058146 60.8672652,192.857206 C57.3405734,196.045978 54.1032608,199.543732 51.1823982,203.28139 L51.1823982,215.580004 C54.85658,209.406894 59.3988993,203.729461 64.6730678,198.807215 C67.0179725,202.77731 69.1537774,206.899563 71.2718461,211.033018 C62.9853339,219.660251 57.2593605,230.68933 55.0012696,242.368113 C53.7083982,241.77722 52.4369969,241.148987 51.1823982,240.489949 L51.1823982,249.808891 C62.387906,254.99998 74.8536133,257.911508 87.9923605,257.911508 C88.2331987,257.911508 88.4712364,257.902173 88.7102075,257.898439 L88.7102075,249.538182 Z" id="Fill-86" fill="#31BBAC" mask="url(#mask-2)"></path>
            <path d="M51.1826783,162.111044 C53.2550064,162.822357 55.2666583,163.703563 57.1737603,164.793869 C61.5265829,167.279729 65.2213013,170.593587 68.5342259,174.367652 C77.2501395,184.293357 82.4290929,196.66945 88.7104876,208.252084 L88.7104876,192.576135 C84.5154233,184.547264 80.0888557,176.661215 74.1444477,169.74412 C67.9554676,162.542312 60.1907714,157.139324 51.1826783,154.521842 L51.1826783,162.111044 Z" id="Fill-87" fill="#31BBAC" mask="url(#mask-2)"></path>
        </g>
    </g>
</svg>