<?xml version="1.0" encoding="UTF-8"?>
<svg width="154px" height="272px" viewBox="0 0 154 272" version="1.1" xmlns="http://www.w3.org/2000/svg" xmlns:xlink="http://www.w3.org/1999/xlink">
    <!-- Generator: Sketch 63.1 (92452) - https://sketch.com -->
    <title>Group 77</title>
    <desc>Created with Sketch.</desc>
    <defs>
        <polygon id="path-1" points="0 0.282017987 26.193825 0.282017987 26.193825 32.635457 0 32.635457"></polygon>
        <polygon id="path-3" points="0 271.552685 153.675667 271.552685 153.675667 0 0 0"></polygon>
    </defs>
    <g id="Unidos-2021-Landing-Page" stroke="none" stroke-width="1" fill="none" fill-rule="evenodd">
        <g id="Group-77">
            <g id="Group-3" transform="translate(0.000000, 200.494869)">
                <mask id="mask-2" fill="white">
                    <use xlink:href="#path-1"></use>
                </mask>
                <g id="Clip-2"></g>
                <path d="M13.096825,32.635457 C16.873325,32.635457 19.9999917,31.4583435 22.4779917,29.1058638 C24.954825,26.7528017 26.193825,23.7369216 26.193825,20.0553113 L26.193825,0.282017987 L19.3507417,0.282017987 L19.3507417,19.7390458 C19.3507417,21.6698381 18.7691583,23.223791 17.6059917,24.3997396 C16.442825,25.5762707 14.939575,26.1645362 13.096825,26.1645362 C11.2534917,26.1645362 9.75840833,25.5762707 8.61040833,24.3997396 C7.461825,23.223791 6.88840833,21.6698381 6.88840833,19.7390458 L6.88840833,0.282017987 L-0.000175,0.282017987 L-0.000175,20.0553113 C-0.000175,23.7369216 1.23824167,26.7528017 3.71624167,29.1058638 C6.193075,31.4583435 9.31974167,32.635457 13.096825,32.635457" id="Fill-1" fill="#000000" mask="url(#mask-2)"></path>
            </g>
            <path d="M38.793125,219.60051 C38.793125,218.303414 39.011875,217.172896 39.4505417,216.206626 C39.8874583,215.242104 40.522125,214.502986 41.353375,213.989855 C42.1840417,213.477307 43.1587917,213.220451 44.2764583,213.220451 C47.116125,213.220451 48.5365417,215.045821 48.5365417,218.695397 L48.5365417,232.450909 L55.1527083,232.450909 L55.1527083,217.654575 C55.1527083,214.548416 54.3442083,212.066052 52.7289583,210.210977 C51.1119583,208.355902 48.9139583,207.428656 46.134375,207.428656 C45.2885417,207.428656 44.480625,207.511945 43.7100417,207.677358 C42.9400417,207.843354 42.2067917,208.085067 41.5120417,208.401333 C40.8167083,208.718181 40.175625,209.095603 39.585875,209.533016 C38.9972917,209.970429 38.476375,210.475406 38.0225417,211.047945 L36.708875,208.016339 L32.176375,208.016339 L32.176375,232.450909 L38.793125,232.450909 L38.793125,219.60051 Z" id="Fill-4" fill="#000000"></path>
            <mask id="mask-4" fill="white">
                <use xlink:href="#path-3"></use>
            </mask>
            <g id="Clip-7"></g>
            <polygon id="Fill-6" fill="#000000" mask="url(#mask-4)" points="61.2249167 232.451084 67.8416667 232.451084 67.8416667 208.016514 61.2249167 208.016514"></polygon>
            <polygon id="Fill-8" fill="#000000" mask="url(#mask-4)" points="61.2249167 204.758921 67.8416667 204.758921 67.8416667 198.604848 61.2249167 198.604848"></polygon>
            <path d="M81.2100917,215.437513 C82.4788417,214.170703 84.071925,213.536425 85.9910917,213.536425 C87.9090917,213.536425 89.5033417,214.170703 90.772675,215.437513 C92.041425,216.704904 92.6760917,218.296134 92.6760917,220.2112 C92.6760917,222.127431 92.041425,223.725067 90.772675,225.007603 C89.5033417,226.290138 87.9090917,226.930823 85.9910917,226.930823 C84.071925,226.930823 82.4788417,226.29771 81.2100917,225.030318 C79.9413417,223.763508 79.306675,222.164707 79.306675,220.233915 C79.306675,218.303705 79.9413417,216.704904 81.2100917,215.437513 M78.8540083,231.501239 C80.8175083,232.616613 83.0230917,233.175174 85.470175,233.175174 C88.4002583,233.175174 90.9535083,232.2555 93.1293417,230.414986 L93.899925,232.4512 L98.7940917,232.4512 L98.7940917,199.19323 L92.1773417,199.19323 L92.1773417,209.329453 C90.1835083,208.002069 87.9475917,207.338087 85.470175,207.338087 C83.0230917,207.338087 80.8175083,207.896648 78.8540083,209.012605 C76.8893417,210.128562 75.3563417,211.666789 74.2538417,213.627868 C73.1507583,215.588947 72.5995083,217.789992 72.5995083,220.233915 C72.5995083,222.677838 73.1507583,224.88762 74.2538417,226.862678 C75.3563417,228.839483 76.8893417,230.384699 78.8540083,231.501239" id="Fill-9" fill="#000000" mask="url(#mask-4)"></path>
            <path d="M121.452683,225.052916 C120.2446,226.304582 118.688267,226.931289 116.78485,226.931289 C115.817683,226.931289 114.933933,226.765293 114.134183,226.433302 C113.332683,226.10131 112.645517,225.648754 112.0721,225.075632 C111.497517,224.503092 111.052433,223.793679 110.7351,222.949139 C110.417767,222.1046 110.2591,221.200069 110.2591,220.234381 C110.2591,218.273302 110.86285,216.666929 112.0721,215.415263 C113.2796,214.163597 114.843517,213.536891 116.7621,213.536891 C118.680683,213.536891 120.2446,214.163597 121.452683,215.415263 C122.660183,216.666929 123.265683,218.273302 123.265683,220.234381 C123.265683,222.194878 122.660183,223.801833 121.452683,225.052916 M126.210933,211.003272 C123.7026,208.559931 120.56135,207.33797 116.78485,207.33797 C112.978017,207.33797 109.821017,208.559931 107.31385,211.003272 C104.805517,213.446612 103.551933,216.523066 103.551933,220.234381 C103.551933,222.648017 104.11835,224.842655 105.251767,226.817713 C106.3846,228.793353 107.962517,230.339734 109.98785,231.455109 C112.01085,232.571649 114.2771,233.13021 116.78485,233.13021 C120.531017,233.13021 123.66585,231.901259 126.188767,229.442193 C128.710517,226.983709 129.972267,223.914827 129.972267,220.234381 C129.972267,216.523066 128.7181,213.446612 126.210933,211.003272" id="Fill-10" fill="#000000" mask="url(#mask-4)"></path>
            <path d="M145.380783,227.383263 C144.866283,227.564403 144.29345,227.655263 143.658783,227.655263 C142.87245,227.655263 142.178283,227.541687 141.574533,227.315118 C140.969617,227.089131 140.493617,226.727435 140.146533,226.23003 C139.798867,225.73146 139.609867,225.12048 139.5807,224.396505 L133.144783,224.396505 C133.144783,226.116454 133.575867,227.639537 134.436283,228.966921 C135.297867,230.294887 136.505367,231.319983 138.0617,232.043957 C139.618033,232.767931 141.4077,233.13021 143.431867,233.13021 C146.513617,233.13021 148.99045,232.382938 150.8647,230.890141 C152.7372,229.397345 153.674617,227.398989 153.674617,224.895075 C153.674617,224.321953 153.635533,223.779118 153.560867,223.265405 C153.485033,222.752857 153.34095,222.3003 153.129783,221.908317 C152.918617,221.516916 152.706867,221.154638 152.4957,220.822064 C152.284533,220.490655 151.98995,220.188368 151.612533,219.917533 C151.23395,219.645533 150.916617,219.412557 150.661117,219.215692 C150.4027,219.019991 150.02645,218.831281 149.5277,218.650724 C149.02895,218.469002 148.635783,218.326304 148.349367,218.220882 C148.061783,218.114878 147.6307,218.001884 147.057867,217.881319 C146.483867,217.760754 146.075533,217.677465 145.834033,217.632034 C145.591367,217.587186 145.183617,217.503897 144.6102,217.383332 C143.9452,217.263349 143.447033,217.173071 143.115117,217.111914 C142.782033,217.051923 142.374283,216.95349 141.891867,216.817199 C141.4077,216.682073 141.053033,216.539375 140.826117,216.38794 C140.600367,216.237088 140.402617,216.033816 140.237533,215.776959 C140.0707,215.521268 139.98845,215.241696 139.98845,214.939991 C139.98845,214.216017 140.274867,213.642895 140.848867,213.220625 C141.422867,212.798355 142.223783,212.586929 143.251033,212.586929 C145.698117,212.586929 146.92195,213.552617 146.92195,215.482244 L153.220783,215.482244 C153.220783,213.039486 152.321283,211.071418 150.524033,209.578039 C148.7262,208.08466 146.35495,207.33797 143.4097,207.33797 C140.463283,207.33797 138.08445,208.061944 136.272033,209.509893 C134.45845,210.958424 133.553117,212.828642 133.553117,215.120548 C133.553117,216.237088 133.749117,217.217919 134.1417,218.061876 C134.534283,218.906998 134.995117,219.570981 135.524783,220.05266 C136.052117,220.536086 136.762617,220.965345 137.65395,221.342767 C138.545283,221.720188 139.315867,221.983452 139.9657,222.133722 C140.614367,222.285739 141.438033,222.436591 142.43495,222.587443 C144.005867,222.857696 145.183617,223.174544 145.96995,223.536822 C146.755117,223.899101 147.148283,224.457662 147.148283,225.21134 C147.148283,225.723889 146.982033,226.169456 146.650117,226.546296 C146.31645,226.923717 145.894117,227.202124 145.380783,227.383263" id="Fill-11" fill="#000000" mask="url(#mask-4)"></path>
            <path d="M4.74786667,249.044481 C4.66678333,249.239599 4.55478333,249.40443 4.4107,249.540721 C4.26603333,249.675848 4.09453333,249.781269 3.89503333,249.857569 C3.69553333,249.933869 3.47678333,249.97231 3.23936667,249.97231 L1.48295,249.97231 L1.48295,246.871976 L3.23936667,246.871976 C3.55378333,246.871976 3.83378333,246.939539 4.07936667,247.074666 C4.32553333,247.210374 4.51861667,247.394426 4.65861667,247.627402 C4.79861667,247.860961 4.86861667,248.125389 4.86861667,248.421852 C4.86861667,248.642597 4.82836667,248.849946 4.74786667,249.044481 M4.8622,245.867848 C4.39961667,245.613321 3.88453333,245.486349 3.31578333,245.486349 L0.01995,245.486349 L0.01995,254.381389 L1.48295,254.381389 L1.48295,251.357355 L3.31578333,251.357355 C4.18145,251.357355 4.90245,251.077201 5.47936667,250.51864 C6.05628333,249.959496 6.34503333,249.259985 6.34503333,248.421852 C6.34503333,247.870863 6.21378333,247.37171 5.9507,246.922066 C5.68761667,246.473586 5.3242,246.121209 4.8622,245.867848" id="Fill-12" fill="#000000" mask="url(#mask-4)"></path>
            <path d="M15.7947417,247.640158 C16.4014083,248.255215 16.7047417,249.019378 16.7047417,249.933811 C16.7047417,250.848826 16.4014083,251.613571 15.7947417,252.227464 C15.188075,252.841939 14.4244917,253.149468 13.5039917,253.149468 C12.5834917,253.149468 11.817575,252.841939 11.206825,252.227464 C10.5954917,251.613571 10.2904083,250.848826 10.2904083,249.933811 C10.2904083,249.019378 10.5954917,248.255215 11.206825,247.640158 C11.817575,247.025682 12.5834917,246.718736 13.5039917,246.718736 C14.4244917,246.718736 15.188075,247.025682 15.7947417,247.640158 M10.137575,246.636029 C9.24624167,247.513185 8.80115833,248.612834 8.80115833,249.933811 C8.80115833,251.25537 9.24624167,252.355018 10.137575,253.232175 C11.028325,254.108166 12.1489083,254.546744 13.497575,254.546744 C14.388325,254.546744 15.1921583,254.348132 15.909075,253.949742 C16.6259917,253.551352 17.1859917,252.998616 17.589075,252.29095 C17.9921583,251.583866 18.1934083,250.798153 18.1934083,249.933811 C18.1934083,248.612834 17.748325,247.513185 16.857575,246.636029 C15.9662417,245.759455 14.846825,245.32146 13.497575,245.32146 C12.1489083,245.32146 11.028325,245.759455 10.137575,246.636029" id="Fill-13" fill="#000000" mask="url(#mask-4)"></path>
            <path d="M25.4545083,249.616089 C25.2550083,249.684235 25.0362583,249.718016 24.7988417,249.718016 L22.8773417,249.718016 L22.8773417,246.858813 L24.7988417,246.858813 C25.2742583,246.858813 25.6580917,246.992192 25.950925,247.25895 C26.2437583,247.525708 26.390175,247.867018 26.390175,248.281716 C26.390175,248.493725 26.351675,248.68826 26.2752583,248.86707 C26.1988417,249.044714 26.092675,249.196731 25.9567583,249.323704 C25.821425,249.451258 25.653425,249.549108 25.4545083,249.616089 L25.4545083,249.616089 Z M26.0588417,250.887558 C26.6100917,250.683704 27.051675,250.35113 27.3830083,249.889836 C27.7137583,249.427961 27.8788417,248.896774 27.8788417,248.29453 C27.8788417,247.760432 27.7493417,247.27817 27.490925,246.845417 C27.231925,246.413828 26.8737583,246.079507 26.4152583,245.842453 C25.9567583,245.604817 25.4480917,245.485999 24.8880917,245.485999 L21.4137583,245.485999 L21.4137583,254.381622 L22.8773417,254.381622 L22.8773417,251.090248 L24.5695917,251.090248 L26.4788417,254.381622 L28.120925,254.381622 L26.0588417,250.887558 Z" id="Fill-14" fill="#000000" mask="url(#mask-4)"></path>
            <polygon id="Fill-15" fill="#000000" mask="url(#mask-4)" points="38.7604 254.381448 38.7604 246.845824 41.3824833 246.845824 41.3824833 245.486407 34.68815 245.486407 34.68815 246.845824 37.30965 246.845824 37.30965 254.381448"></polygon>
            <path d="M50.3612667,252.227406 C49.7546,252.841881 48.9910167,253.14941 48.0705167,253.14941 C47.1500167,253.14941 46.3841,252.841881 45.77335,252.227406 C45.1620167,251.613513 44.8569333,250.848767 44.8569333,249.933752 C44.8569333,249.01932 45.1620167,248.255157 45.77335,247.640099 C46.3841,247.025624 47.1500167,246.718678 48.0705167,246.718678 C48.9910167,246.718678 49.7546,247.025624 50.3612667,247.640099 C50.9679333,248.255157 51.2712667,249.01932 51.2712667,249.933752 C51.2712667,250.848767 50.9679333,251.613513 50.3612667,252.227406 M48.0641,245.321401 C46.7154333,245.321401 45.5954333,245.759979 44.7041,246.635971 C43.81335,247.513127 43.3676833,248.612776 43.3676833,249.933752 C43.3676833,251.255311 43.81335,252.35496 44.7041,253.232116 C45.5954333,254.108108 46.7154333,254.546686 48.0641,254.546686 C48.95485,254.546686 49.7586833,254.348074 50.4756,253.949684 C51.1931,253.551294 51.7525167,252.998558 52.1556,252.290892 C52.5586833,251.584391 52.7605167,250.798095 52.7605167,249.933752 C52.7605167,248.612776 52.3154333,247.513127 51.4241,246.635971 C50.53335,245.759979 49.41335,245.321401 48.0641,245.321401" id="Fill-16" fill="#000000" mask="url(#mask-4)"></path>
            <path d="M60.020975,249.616089 C59.821475,249.684235 59.6033083,249.718016 59.3653083,249.718016 L57.4438083,249.718016 L57.4438083,246.858813 L59.3653083,246.858813 C59.840725,246.858813 60.2245583,246.992192 60.5173917,247.25895 C60.810225,247.525708 60.9566417,247.867018 60.9566417,248.281716 C60.9566417,248.493725 60.9181417,248.68826 60.841725,248.86707 C60.7653083,249.044714 60.6591417,249.196731 60.5238083,249.323704 C60.3878917,249.451258 60.2198917,249.549108 60.020975,249.616089 M61.949475,249.889836 C62.280225,249.427961 62.4453083,248.896774 62.4453083,248.29453 C62.4453083,247.760432 62.3163917,247.27817 62.0573917,246.845417 C61.7983917,246.413828 61.440225,246.079507 60.981725,245.842453 C60.5238083,245.604817 60.0145583,245.485999 59.4545583,245.485999 L55.980225,245.485999 L55.980225,254.381622 L57.4438083,254.381622 L57.4438083,251.090248 L59.1360583,251.090248 L61.0453083,254.381622 L62.6873917,254.381622 L60.6258917,250.887558 C61.1771417,250.683704 61.6181417,250.35113 61.949475,249.889836" id="Fill-17" fill="#000000" mask="url(#mask-4)"></path>
            <path d="M69.8336917,249.616089 C69.6341917,249.684235 69.4154417,249.718016 69.178025,249.718016 L67.256525,249.718016 L67.256525,246.858813 L69.178025,246.858813 C69.6534417,246.858813 70.037275,246.992192 70.3301083,247.25895 C70.6229417,247.525708 70.7693583,247.867018 70.7693583,248.281716 C70.7693583,248.493725 70.7308583,248.68826 70.6544417,248.86707 C70.578025,249.044714 70.4718583,249.196731 70.3359417,249.323704 C70.2006083,249.451258 70.0326083,249.549108 69.8336917,249.616089 L69.8336917,249.616089 Z M70.438025,250.887558 C70.989275,250.683704 71.4308583,250.35113 71.7616083,249.889836 C72.0929417,249.427961 72.258025,248.896774 72.258025,248.29453 C72.258025,247.760432 72.128525,247.27817 71.8701083,246.845417 C71.6111083,246.413828 71.2529417,246.079507 70.7944417,245.842453 C70.3359417,245.604817 69.827275,245.485999 69.267275,245.485999 L65.7929417,245.485999 L65.7929417,254.381622 L67.256525,254.381622 L67.256525,251.090248 L68.948775,251.090248 L70.858025,254.381622 L72.5001083,254.381622 L70.438025,250.887558 Z" id="Fill-18" fill="#000000" mask="url(#mask-4)"></path>
            <polygon id="Fill-19" fill="#000000" mask="url(#mask-4)" points="80.7851333 246.858638 80.7851333 245.486407 75.6051333 245.486407 75.6051333 254.381448 80.92455 254.381448 80.92455 252.996985 77.0681333 252.996985 77.0681333 250.518698 80.4543833 250.518698 80.4543833 249.172094 77.0681333 249.172094 77.0681333 246.858638"></polygon>
            <path d="M90.01195,250.728086 C89.95245,250.5883 89.8655333,250.454338 89.7512,250.327949 C89.6362833,250.200976 89.53245,250.094972 89.4397,250.010518 C89.3457833,249.925482 89.2145333,249.841028 89.0447833,249.755991 C88.8750333,249.67212 88.7350333,249.605722 88.6247833,249.559126 C88.5145333,249.512531 88.3576167,249.457199 88.15345,249.393713 C87.95045,249.330809 87.7952833,249.285961 87.6897,249.259752 C87.58295,249.235289 87.4237,249.196848 87.21195,249.146176 C86.9401167,249.07803 86.7347833,249.025028 86.5947833,248.987169 C86.4547833,248.94931 86.2827,248.892231 86.0797,248.815931 C85.8755333,248.739632 85.7227,248.661585 85.6212,248.580625 C85.5191167,248.500248 85.43045,248.396574 85.3540333,248.269019 C85.2776167,248.14263 85.2391167,248.002261 85.2391167,247.850244 C85.2391167,247.49379 85.3942833,247.217131 85.70345,247.017353 C86.0132,246.818741 86.4017,246.718561 86.8677833,246.718561 C87.35195,246.718561 87.7480333,246.839709 88.0583667,247.081422 C88.3681167,247.32197 88.5227,247.655709 88.5227,248.078561 L89.9740333,248.078561 C89.9740333,247.239846 89.7027833,246.577028 89.1591167,246.089525 C88.61545,245.603186 87.8606167,245.359143 86.8940333,245.359143 C85.9432,245.359143 85.1860333,245.583966 84.62195,246.032445 C84.0578667,246.48209 83.7755333,247.104719 83.7755333,247.900916 C83.7755333,248.163597 83.8093667,248.400651 83.8770333,248.61266 C83.9452833,248.823503 84.0240333,249.00406 84.1127,249.152582 C84.20195,249.300522 84.3355333,249.440308 84.5140333,249.57194 C84.69195,249.703572 84.8471167,249.807246 84.9783667,249.882964 C85.1102,249.959846 85.2962833,250.03731 85.5383667,250.117687 C85.78045,250.198647 85.9688667,250.257473 86.1047833,250.296497 C86.2407,250.334355 86.4396167,250.382698 86.7027,250.442107 C86.9401167,250.501516 87.1186167,250.546364 87.2370333,250.575486 C87.3560333,250.605191 87.5112,250.649456 87.70195,250.708865 C87.8932833,250.768274 88.0373667,250.830013 88.1342,250.892916 C88.2322,250.957567 88.3342833,251.031537 88.44045,251.115409 C88.54545,251.200445 88.62245,251.30179 88.6685333,251.420608 C88.7157833,251.540009 88.7391167,251.671058 88.7391167,251.814921 C88.7391167,252.204574 88.5693667,252.520257 88.23045,252.761388 C87.8903667,253.002518 87.4750333,253.123666 86.9827,253.123666 C86.4396167,253.123666 85.9916167,252.98621 85.64045,252.710715 C85.2875333,252.435803 85.11195,252.060711 85.11195,251.586021 L83.6355333,251.586021 C83.6355333,252.178946 83.7755333,252.697901 84.0555333,253.142887 C84.3355333,253.587872 84.7281167,253.9286 85.2332833,254.165071 C85.7372833,254.402707 86.3252833,254.521525 86.9955333,254.521525 C87.9288667,254.521525 88.7012,254.282724 89.31195,253.803375 C89.9227,253.325191 90.2283667,252.653636 90.2283667,251.789293 C90.2283667,251.586021 90.2067833,251.393233 90.1647833,251.211512 C90.1222,251.029208 90.07145,250.867872 90.01195,250.728086" id="Fill-20" fill="#000000" mask="url(#mask-4)"></path>
            <polygon id="Fill-21" fill="#000000" mask="url(#mask-4)" points="105.272067 245.486116 103.668483 245.486116 101.110567 252.297182 98.5013167 245.486116 96.8849 245.486116 100.43565 254.381156 101.797733 254.381156"></polygon>
            <polygon id="Fill-22" fill="#000000" mask="url(#mask-4)" points="109.611717 250.518756 112.997383 250.518756 112.997383 249.17157 109.611717 249.17157 109.611717 246.858696 113.328133 246.858696 113.328133 245.485883 108.148717 245.485883 108.148717 254.381506 113.46755 254.381506 113.46755 252.997043 109.611717 252.997043"></polygon>
            <path d="M122.052583,252.151805 C121.47975,252.731916 120.74825,253.021972 119.856917,253.021972 L118.214833,253.021972 L118.214833,246.845766 L119.856917,246.845766 C120.297917,246.845766 120.709167,246.922066 121.091833,247.074666 C121.473333,247.227265 121.797667,247.439274 122.064833,247.710109 C122.332,247.981526 122.54025,248.307111 122.689,248.68861 C122.837167,249.070109 122.911833,249.484807 122.911833,249.933869 C122.911833,250.831411 122.624833,251.571693 122.052583,252.151805 M124.413333,249.933869 C124.413333,248.646092 123.986333,247.583137 123.134083,246.745004 C122.281833,245.905124 121.202083,245.486349 119.895417,245.486349 L116.751833,245.486349 L116.751833,254.381389 L119.895417,254.381389 C121.202083,254.381389 122.281833,253.962032 123.134083,253.123899 C123.986333,252.285184 124.413333,251.221646 124.413333,249.933869" id="Fill-23" fill="#000000" mask="url(#mask-4)"></path>
            <path d="M131.686683,249.616089 C131.487767,249.684235 131.268433,249.718016 131.0316,249.718016 L129.109517,249.718016 L129.109517,246.858813 L131.0316,246.858813 C131.50585,246.858813 131.89085,246.992192 132.183683,247.25895 C132.475933,247.525708 132.62235,247.867018 132.62235,248.281716 C132.62235,248.493725 132.584433,248.68826 132.507433,248.86707 C132.431017,249.044714 132.325433,249.196731 132.189517,249.323704 C132.0536,249.451258 131.886767,249.549108 131.686683,249.616089 L131.686683,249.616089 Z M134.3531,254.381622 L132.291017,250.887558 C132.842267,250.683704 133.28385,250.35113 133.615183,249.889836 C133.945933,249.427961 134.111017,248.896774 134.111017,248.29453 C134.111017,247.760432 133.9821,247.27817 133.7231,246.845417 C133.4641,246.413828 133.105933,246.079507 132.647433,245.842453 C132.189517,245.604817 131.680267,245.485999 131.12085,245.485999 L127.645933,245.485999 L127.645933,254.381622 L129.109517,254.381622 L129.109517,251.090248 L130.801767,251.090248 L132.7116,254.381622 L134.3531,254.381622 Z" id="Fill-24" fill="#000000" mask="url(#mask-4)"></path>
            <path d="M139.227258,251.141619 L140.691425,247.392445 L142.180092,251.141619 L139.227258,251.141619 Z M139.991425,245.486116 L136.402175,254.381156 L137.955008,254.381156 L138.719175,252.449782 L142.689342,252.449782 L143.465758,254.381156 L145.044258,254.381156 L141.366342,245.486116 L139.991425,245.486116 Z" id="Fill-25" fill="#000000" mask="url(#mask-4)"></path>
            <path d="M151.572983,252.761504 C151.233483,253.002635 150.817567,253.123782 150.325233,253.123782 C149.782733,253.123782 149.334733,252.986326 148.982983,252.710832 C148.63065,252.435337 148.454483,252.060827 148.454483,251.585555 L146.978067,251.585555 C146.978067,252.179063 147.118067,252.698018 147.398067,253.142421 C147.678067,253.587988 148.07065,253.928716 148.575817,254.165187 C149.0804,254.402241 149.667233,254.521059 150.338067,254.521059 C151.270817,254.521059 152.043733,254.282258 152.654483,253.803491 C153.265233,253.325307 153.571483,252.65317 153.571483,251.78941 C153.571483,251.585555 153.549317,251.392767 153.506733,251.211628 C153.464733,251.028742 153.4134,250.867988 153.354483,250.728202 C153.295567,250.588416 153.208067,250.454455 153.093733,250.328065 C152.9794,250.201093 152.8744,250.095089 152.78165,250.010052 C152.688317,249.925598 152.557067,249.840562 152.387317,249.756108 C152.216983,249.671654 152.076983,249.605838 151.9679,249.559243 C151.857067,249.512648 151.70015,249.457316 151.495983,249.39383 C151.293567,249.330343 151.137817,249.286078 151.03165,249.259868 C150.926067,249.234823 150.766233,249.196964 150.554483,249.146292 C150.283233,249.078146 150.0779,249.025144 149.937317,248.987286 C149.797317,248.949427 149.625233,248.891765 149.42165,248.816048 C149.218067,248.739748 149.065817,248.661701 148.963733,248.580742 C148.862233,248.500365 148.772983,248.39669 148.695983,248.269136 C148.62015,248.142164 148.58165,248.002378 148.58165,247.849778 C148.58165,247.493907 148.736817,247.216665 149.046567,247.01747 C149.355733,246.818857 149.744233,246.718678 150.2109,246.718678 C150.694483,246.718678 151.09115,246.839825 151.4009,247.081538 C151.710067,247.322087 151.865817,247.655243 151.865817,248.078678 L153.316567,248.078678 C153.316567,247.239962 153.044733,246.577144 152.502233,246.089641 C151.958567,245.603303 151.203733,245.35926 150.236567,245.35926 C149.285733,245.35926 148.528567,245.584082 147.964483,246.032562 C147.4004,246.482206 147.118067,247.104836 147.118067,247.900451 C147.118067,248.163131 147.1519,248.400767 147.22015,248.612776 C147.287233,248.82362 147.366567,249.004176 147.455233,249.152699 C147.545067,249.300639 147.678067,249.440425 147.856567,249.571474 C148.035067,249.703688 148.18965,249.807363 148.321483,249.88308 C148.452733,249.95938 148.6394,250.037427 148.8809,250.117804 C149.122983,250.198763 149.311983,250.25759 149.447317,250.296613 C149.583233,250.334472 149.782733,250.382815 150.045233,250.442224 C150.283233,250.501633 150.46115,250.545898 150.58015,250.575603 C150.698567,250.605307 150.854317,250.649573 151.044483,250.708982 C151.235817,250.768391 151.3799,250.830129 151.477317,250.893033 C151.574733,250.957101 151.676817,251.031072 151.782983,251.115525 C151.888567,251.199979 151.964983,251.301907 152.01165,251.420725 C152.0589,251.539543 152.082233,251.671174 152.082233,251.815037 C152.082233,252.20469 151.9119,252.520373 151.572983,252.761504" id="Fill-26" fill="#000000" mask="url(#mask-4)"></path>
            <polygon id="Fill-27" fill="#000000" mask="url(#mask-4)" points="131.253733 268.784925 131.250817 269.037704 153.673567 269.213602 153.6759 268.960822"></polygon>
            <polygon id="Fill-28" fill="#000000" mask="url(#mask-4)" points="0 269.037704 22.4215833 269.037704 22.4215833 268.784925 0 268.784925"></polygon>
            <polygon id="Fill-29" fill="#000000" mask="url(#mask-4)" points="34.1222 264.517263 32.0076167 269.214068 29.8930333 264.517263 28.77595 264.517263 27.64895 271.423849 28.8057 271.423849 29.6153667 266.421845 31.8693667 271.316098 32.1557833 271.316098 34.3987 266.421845 35.20895 271.423849 36.3651167 271.423849 35.2486167 264.517263"></polygon>
            <path d="M42.062125,269.66313 C41.9139583,269.929305 41.7080417,270.136072 41.444375,270.284594 C41.1812917,270.432534 40.8814583,270.507087 40.544875,270.507087 C40.0379583,270.507087 39.6214583,270.342256 39.295375,270.013759 C38.9692917,269.68468 38.8059583,269.266487 38.8059583,268.759764 C38.8059583,268.254205 38.9692917,267.836012 39.295375,267.506933 C39.6214583,267.177854 40.0379583,267.013605 40.544875,267.013605 C41.0529583,267.013605 41.468875,267.177854 41.7949583,267.506933 C42.121625,267.836012 42.284375,268.254205 42.284375,268.759764 C42.284375,269.09525 42.2102917,269.396954 42.062125,269.66313 M42.002625,266.328072 C41.5645417,266.087524 41.078625,265.967541 40.544875,265.967541 C40.0117083,265.967541 39.5257917,266.087524 39.0877083,266.328072 C38.6490417,266.56862 38.3072083,266.902359 38.059875,267.329288 C37.8125417,267.757382 37.6894583,268.234402 37.6894583,268.759764 C37.6894583,269.56295 37.9612917,270.22868 38.504375,270.758119 C39.0480417,271.287558 39.7287917,271.552569 40.544875,271.552569 C41.362125,271.552569 42.0422917,271.287558 42.5859583,270.758119 C43.129625,270.22868 43.4014583,269.56295 43.4014583,268.759764 C43.4014583,268.234402 43.2772083,267.757382 43.0304583,267.329288 C42.7837083,266.902359 42.4407083,266.56862 42.002625,266.328072" id="Fill-30" fill="#000000" mask="url(#mask-4)"></path>
            <polygon id="Fill-31" fill="#000000" mask="url(#mask-4)" points="47.0771583 270.052725 45.4764917 266.096202 44.320325 266.096202 46.5737417 271.423791 47.5811583 271.423791 49.775075 266.096202 48.6486583 266.096202"></polygon>
            <polygon id="Fill-32" fill="#000000" mask="url(#mask-4)" points="51.28725 271.423966 52.3839167 271.423966 52.3839167 266.096377 51.28725 266.096377"></polygon>
            <polygon id="Fill-33" fill="#000000" mask="url(#mask-4)" points="51.2674167 265.267563 52.40375 265.267563 52.40375 264.142869 51.2674167 264.142869"></polygon>
            <path d="M60.5071833,265.977384 C60.1577667,265.977384 59.8281833,266.060673 59.5190167,266.224922 C59.2092667,266.38917 58.9590167,266.616322 58.7682667,266.905213 C58.6101833,266.616322 58.3926,266.38917 58.1155167,266.224922 C57.8390167,266.060673 57.52285,265.977384 57.1670167,265.977384 C56.8444333,265.977384 56.5376,266.048442 56.2476833,266.189393 C55.9577667,266.330926 55.7110167,266.530703 55.50685,266.786977 L55.3190167,266.096202 L54.5385167,266.096202 L54.5385167,271.424373 L55.6351833,271.424373 L55.6351833,268.513333 C55.6351833,268.059611 55.75535,267.686849 55.9962667,267.393881 C56.2366,267.101496 56.5346833,266.95472 56.8905167,266.95472 C57.2265167,266.95472 57.4831833,267.071791 57.6611,267.304767 C57.8390167,267.538326 57.9282667,267.872065 57.9282667,268.306566 L57.9282667,271.424373 L59.0051,271.424373 L59.0051,268.513333 C59.0051,268.059611 59.1235167,267.686849 59.3609333,267.393881 C59.5977667,267.101496 59.8981833,266.95472 60.2604333,266.95472 C60.4774333,266.95472 60.6635167,267.00714 60.8186833,267.112562 C60.9732667,267.217984 61.0916833,267.372331 61.1745167,267.576185 C61.2567667,267.780039 61.2976,268.024082 61.2976,268.306566 L61.2976,271.424373 L62.39485,271.424373 L62.39485,268.040391 C62.39485,267.428245 62.2204333,266.932005 61.8710167,266.549924 C61.5216,266.168425 61.0671833,265.977384 60.5071833,265.977384" id="Fill-34" fill="#000000" mask="url(#mask-4)"></path>
            <path d="M65.2108917,268.24739 C65.3030583,267.846671 65.4926417,267.530988 65.7790583,267.299758 C66.0660583,267.070277 66.4131417,266.954371 66.8220583,266.954371 C67.0915583,266.954371 67.3371417,267.005626 67.5576417,267.107553 C67.778725,267.20948 67.9648083,267.358003 68.1158917,267.551955 C68.2681417,267.745908 68.3766417,267.97772 68.4425583,268.24739 L65.2108917,268.24739 Z M68.2448083,266.34805 C67.829475,266.094688 67.355225,265.967716 66.8220583,265.967716 C66.037475,265.967716 65.3835583,266.234474 64.859725,266.767407 C64.336475,267.299758 64.0745583,267.964324 64.0745583,268.759938 C64.0745583,269.556135 64.336475,270.220701 64.859725,270.753634 C65.3835583,271.286568 66.037475,271.552743 66.8220583,271.552743 C67.414725,271.552743 67.941475,271.392572 68.4028917,271.074559 C68.863725,270.755382 69.199725,270.313309 69.4108917,269.746594 L68.254725,269.746594 C68.1625583,269.910842 68.0453083,270.051793 67.9035583,270.166534 C67.7623917,270.281275 67.5990583,270.370388 67.414725,270.432709 C67.2303917,270.49503 67.0326417,270.5259 66.8220583,270.5259 C66.3868917,270.5259 66.0228917,270.401257 65.7300583,270.151973 C65.4366417,269.901523 65.256975,269.563125 65.1910583,269.13503 L69.5193917,269.13503 C69.5328083,268.990585 69.539225,268.868855 69.539225,268.76984 C69.539225,268.257292 69.427225,267.788427 69.203225,267.363827 C68.979225,266.93981 68.6595583,266.601412 68.2448083,266.34805 L68.2448083,266.34805 Z" id="Fill-35" fill="#000000" mask="url(#mask-4)"></path>
            <path d="M74.1246917,265.977384 C73.7356083,265.977384 73.3821083,266.053684 73.0624417,266.205119 C72.742775,266.355971 72.4808583,266.566815 72.2766917,266.836485 L72.0591083,266.096202 L71.2984417,266.096202 L71.2984417,271.424373 L72.3951083,271.424373 L72.3951083,268.572742 C72.3951083,268.099217 72.5304417,267.711311 72.800525,267.408442 C73.0706083,267.105573 73.413025,266.95472 73.8283583,266.95472 C74.2296917,266.95472 74.534775,267.081693 74.7424417,267.334472 C74.9501083,267.587834 75.0533583,267.954772 75.0533583,268.434703 L75.0533583,271.424373 L76.1506083,271.424373 L76.1506083,268.218035 C76.1506083,267.55347 75.9674417,267.013547 75.602275,266.598849 C75.236525,266.184733 74.7441917,265.977384 74.1246917,265.977384" id="Fill-36" fill="#000000" mask="url(#mask-4)"></path>
            <path d="M79.82695,270.171601 C79.65545,270.000363 79.5697,269.756903 79.5697,269.44122 L79.5697,267.033408 L81.1412,267.033408 L81.1412,266.09626 L79.5597833,266.09626 L79.5597833,264.852749 L79.3725333,264.852749 L77.5140333,266.826642 L77.5140333,267.033408 L78.4730333,267.033408 L78.4730333,269.529751 C78.4730333,269.918239 78.5482833,270.255472 78.69995,270.541451 C78.8516167,270.82743 79.0686167,271.045845 79.3527,271.19728 C79.6356167,271.348714 79.9716167,271.423849 80.3607,271.423849 L81.17095,271.423849 L81.17095,270.427875 L80.5683667,270.427875 C80.2446167,270.427875 79.9978667,270.342256 79.82695,270.171601" id="Fill-37" fill="#000000" mask="url(#mask-4)"></path>
            <path d="M86.7489,269.66313 C86.6007333,269.929305 86.3954,270.136072 86.13115,270.284594 C85.8674833,270.432534 85.5688167,270.507087 85.2322333,270.507087 C84.7247333,270.507087 84.30765,270.342256 83.98215,270.013759 C83.6554833,269.68468 83.4927333,269.266487 83.4927333,268.759764 C83.4927333,268.254205 83.6554833,267.836012 83.98215,267.506933 C84.30765,267.177854 84.7247333,267.013605 85.2322333,267.013605 C85.73915,267.013605 86.15565,267.177854 86.4823167,267.506933 C86.8084,267.836012 86.97115,268.254205 86.97115,268.759764 C86.97115,269.09525 86.89765,269.396954 86.7489,269.66313 M86.6894,266.328072 C86.2513167,266.087524 85.7654,265.967541 85.2322333,265.967541 C84.6979,265.967541 84.2125667,266.087524 83.7744833,266.328072 C83.3358167,266.56862 82.9939833,266.902359 82.74665,267.329288 C82.4999,267.757382 82.3762333,268.234402 82.3762333,268.759764 C82.3762333,269.56295 82.6480667,270.22868 83.19115,270.758119 C83.7348167,271.287558 84.4149833,271.552569 85.2322333,271.552569 C86.0494833,271.552569 86.7290667,271.287558 87.2727333,270.758119 C87.8164,270.22868 88.08765,269.56295 88.08765,268.759764 C88.08765,268.234402 87.9645667,267.757382 87.7172333,267.329288 C87.4704833,266.902359 87.1274833,266.56862 86.6894,266.328072" id="Fill-38" fill="#000000" mask="url(#mask-4)"></path>
            <path d="M97.5155417,270.028262 C97.1270417,270.307834 96.669125,270.44762 96.142375,270.44762 C95.4505417,270.44762 94.8777083,270.215226 94.4227083,269.752185 C93.9682917,269.287979 93.7407917,268.696219 93.7407917,267.97574 C93.7407917,267.25526 93.9682917,266.662335 94.4227083,266.195217 C94.8777083,265.727517 95.4505417,265.49454 96.142375,265.49454 C96.6557083,265.49454 97.1042917,265.623842 97.4857917,265.884194 C97.867875,266.143962 98.1420417,266.503911 98.3065417,266.964039 L99.4527917,266.964039 C99.3337917,266.451491 99.1179583,266.001264 98.805875,265.612776 C98.492625,265.22487 98.1052917,264.924913 97.6444583,264.715234 C97.183625,264.504391 96.6825417,264.399551 96.142375,264.399551 C95.1215417,264.399551 94.2727917,264.736202 93.597875,265.410087 C92.922375,266.084553 92.5852083,266.938412 92.5852083,267.97108 C92.5852083,269.003748 92.922375,269.857024 93.597875,270.531491 C94.2727917,271.205376 95.1215417,271.543191 96.142375,271.543191 C96.978875,271.543191 97.699875,271.300896 98.3065417,270.81747 C98.912625,270.334044 99.3040417,269.687534 99.4825417,268.878523 L98.326375,268.878523 C98.1747083,269.365444 97.9040417,269.74869 97.5155417,270.028262" id="Fill-39" fill="#000000" mask="url(#mask-4)"></path>
            <polygon id="Fill-40" fill="#000000" mask="url(#mask-4)" points="101.2508 265.484231 102.100717 265.484231 102.832217 263.985028 101.685967 263.985028"></polygon>
            <polygon id="Fill-41" fill="#000000" mask="url(#mask-4)" points="101.171583 271.423966 102.268833 271.423966 102.268833 266.096377 101.171583 266.096377"></polygon>
            <polygon id="Fill-42" fill="#000000" mask="url(#mask-4)" points="106.508208 270.052725 104.907542 266.096202 103.750792 266.096202 106.004208 271.423791 107.012208 271.423791 109.206125 266.096202 108.079708 266.096202"></polygon>
            <polygon id="Fill-43" fill="#000000" mask="url(#mask-4)" points="110.698 265.267563 111.834333 265.267563 111.834333 264.142869 110.698 264.142869"></polygon>
            <polygon id="Fill-44" fill="#000000" mask="url(#mask-4)" points="110.717833 271.423966 111.8145 271.423966 111.8145 266.096377 110.717833 266.096377"></polygon>
            <path d="M117.304425,270.239863 C117.030842,270.41809 116.719342,270.507203 116.369925,270.507203 C115.896258,270.507203 115.497258,270.338878 115.174675,270.003392 C114.852092,269.667906 114.691092,269.25379 114.691092,268.75988 C114.691092,268.431966 114.764592,268.133756 114.912758,267.86758 C115.060925,267.601405 115.263925,267.391726 115.520592,267.240874 C115.777842,267.089439 116.060758,267.013722 116.369925,267.013722 C116.719342,267.013722 117.032592,267.101088 117.309092,267.275238 C117.585592,267.44997 117.793842,267.688188 117.931508,267.991058 L119.018842,267.991058 C118.873592,267.378912 118.560925,266.889079 118.080258,266.520394 C117.599592,266.152291 117.032592,265.967657 116.380425,265.967657 C115.583008,265.967657 114.916258,266.234415 114.379008,266.767349 C113.842342,267.2997 113.574008,267.962518 113.574008,268.755221 C113.574008,269.548505 113.842342,270.212488 114.379008,270.748334 C114.916258,271.284762 115.580092,271.552685 116.369925,271.552685 C117.029092,271.552685 117.601342,271.363974 118.084925,270.984805 C118.569675,270.606801 118.887592,270.105901 119.039258,269.48036 L117.931508,269.48036 C117.786842,269.809439 117.577425,270.062801 117.304425,270.239863" id="Fill-45" fill="#000000" mask="url(#mask-4)"></path>
            <path d="M124.6861,269.66313 C124.537933,269.929305 124.3326,270.136072 124.06835,270.284594 C123.804683,270.432534 123.506017,270.507087 123.169433,270.507087 C122.661933,270.507087 122.24485,270.342256 121.919933,270.013759 C121.593267,269.68468 121.430517,269.266487 121.430517,268.759764 C121.430517,268.254205 121.593267,267.836012 121.919933,267.506933 C122.24485,267.177854 122.661933,267.013605 123.169433,267.013605 C123.676933,267.013605 124.09285,267.177854 124.419517,267.506933 C124.7456,267.836012 124.90835,268.254205 124.90835,268.759764 C124.90835,269.09525 124.83485,269.396954 124.6861,269.66313 M124.627183,266.328072 C124.188517,266.087524 123.7026,265.967541 123.169433,265.967541 C122.635683,265.967541 122.149767,266.087524 121.711683,266.328072 C121.273017,266.56862 120.931183,266.902359 120.684433,267.329288 C120.4371,267.757382 120.313433,268.234402 120.313433,268.759764 C120.313433,269.56295 120.585267,270.22868 121.12835,270.758119 C121.672017,271.287558 122.352183,271.552569 123.169433,271.552569 C123.986683,271.552569 124.666267,271.287558 125.209933,270.758119 C125.7536,270.22868 126.025433,269.56295 126.025433,268.759764 C126.025433,268.234402 125.901767,267.757382 125.654433,267.329288 C125.407683,266.902359 125.065267,266.56862 124.627183,266.328072" id="Fill-46" fill="#000000" mask="url(#mask-4)"></path>
            <path d="M139.6773,24.3732385 C139.606133,23.9259238 139.445133,23.4873456 139.162217,23.0941979 L123.46355,1.25090878 C122.93855,0.519945182 122.111967,0.0831143469 121.219467,0.0237053533 C121.155883,0.0190458244 121.095217,0.00215503212 121.030467,0.000990149893 L121.030467,8.15866039 L121.219467,8.42192377 L131.192717,22.2980009 L121.219467,22.2980009 L121.030467,22.2980009 L121.030467,28.2726818 L121.219467,28.2726818 L133.850967,28.2726818 L133.836967,108.911654 L139.819633,108.911654 L139.8348,25.2865062 C139.8348,24.971988 139.7718,24.6667889 139.6773,24.3732385" id="Fill-47" fill="#C61B37" mask="url(#mask-4)"></path>
            <path d="M23.8526167,97.1459358 C23.9366167,97.1639914 24.0212,97.1768051 24.1052,97.1942784 C22.66845,96.8983983 21.2398667,96.5227238 19.8241167,96.0253191 L19.8241167,86.8862355 C21.0677833,87.8833747 22.4275333,88.7267495 23.8526167,89.4623726 L23.8526167,83.4236231 C23.8718667,83.4376017 23.8917,83.449833 23.91095,83.4638116 C22.3178667,82.297182 20.9102833,80.8783555 19.8241167,79.2079143 L19.8241167,37.649576 L23.8526167,37.649576 L23.8526167,31.6748951 L16.8322,31.6748951 C15.1802,31.6748951 13.8408667,33.0127623 13.8408667,34.6622355 L13.8408667,108.911829 L19.8241167,108.911829 L19.8241167,101.507837 C21.1558667,101.914964 22.50045,102.229482 23.8526167,102.482844 L23.8526167,97.1459358 Z" id="Fill-48" fill="#44C7F4" mask="url(#mask-4)"></path>
            <path d="M60.324075,34.9677842 C60.324075,33.3177285 58.9847417,31.9804437 57.3327417,31.9804437 L50.422575,31.9804437 L50.422575,37.9545422 L54.3414083,37.9545422 L54.3414083,48.3825679 L50.422575,52.5580882 L50.422575,61.2952874 L59.3032417,51.832949 C59.4449917,51.7077242 59.5727417,51.5708505 59.688825,51.4217456 L60.3211583,50.7466964 L60.324075,34.9677842 Z" id="Fill-49" fill="#7EC252" mask="url(#mask-4)"></path>
            <path d="M60.4445333,88.2392463 C57.1300333,88.0085996 53.7735333,88.0749979 50.4228667,88.1705182 L50.4228667,93.3251221 C53.7758667,93.2138758 57.1242,93.1445653 60.4445333,93.4299615 L60.4445333,88.2392463 Z" id="Fill-50" fill="#7EC252" mask="url(#mask-4)"></path>
            <path d="M60.4445333,99.6039537 C57.2000333,98.6563221 53.7992,98.2299752 50.4228667,98.0663092 L50.4228667,103.27741 C53.0397,103.411371 55.64195,103.719483 58.1882,104.380553 C58.9541167,104.579748 59.7037,104.824956 60.4445333,105.092296 L60.4445333,99.6039537 Z" id="Fill-51" fill="#7EC252" mask="url(#mask-4)"></path>
            <path d="M33.4124,45.2984257 L33.4124,34.6624685 C33.4124,33.0124128 32.0730667,31.6751281 30.4210667,31.6751281 L23.8527333,31.6751281 L23.8527333,37.649809 L27.4297333,37.649809 L27.4297333,48.2851837 C27.4297333,49.9352394 28.7690667,51.2725242 30.4210667,51.2725242 L37.0833167,51.2725242 L37.0833167,45.2984257 L33.4124,45.2984257 Z" id="Fill-52" fill="#3D71B7" mask="url(#mask-4)"></path>
            <path d="M37.0832583,87.9963683 C37.0832583,87.9969507 37.1345917,88.0016103 37.0832583,87.9963683 C34.1590083,87.6672891 31.2872583,87.0376702 28.3810917,85.912394 C26.7780917,85.2915118 25.2445083,84.453379 23.852675,83.4236231 L23.852675,89.4769336 C27.7802583,91.5143126 32.2678417,92.6390064 36.6702583,93.1602912 C36.8073417,93.1765996 36.9455917,93.187666 37.0832583,93.2004797 L37.0832583,87.9963683 Z" id="Fill-53" fill="#3D71B7" mask="url(#mask-4)"></path>
            <path d="M37.0832583,98.1458707 L37.0832583,98.1458707 C37.096675,98.1458707 37.1095083,98.1452882 37.122925,98.1452882 C37.1340083,98.1452882 37.1450917,98.1447058 37.156175,98.1447058 C32.6755917,98.207027 28.2218417,98.0870441 23.852675,97.1458193 L23.852675,102.48331 C28.197925,103.298145 32.632425,103.408226 37.0832583,103.351729 L37.0832583,98.1458707 Z" id="Fill-54" fill="#3D71B7" mask="url(#mask-4)"></path>
            <path d="M133.837142,108.911945 L133.834808,121.447243 C133.834808,129.795954 132.010142,137.721812 128.762725,144.87186 C128.629142,144.882343 128.496142,144.894575 128.363142,144.924279 C124.394725,145.797358 120.167308,145.064065 116.430475,143.275388 C113.493975,141.87054 110.870142,139.967705 108.547308,137.727637 L108.547308,144.519483 C113.593725,148.27914 119.589808,150.692776 125.855975,150.442909 C124.678808,152.419714 123.383808,154.316725 121.983808,156.129864 C121.819892,156.138018 121.655392,156.157821 121.492058,156.19335 C117.903392,156.984305 114.260475,156.483988 110.745308,155.15544 C110.000975,154.874121 109.268892,154.5398 108.547308,154.176939 L108.547308,159.82254 C111.279058,160.911705 114.151392,161.587337 117.084975,161.707902 C115.046808,163.739457 112.850558,165.611423 110.525975,167.31914 C109.867392,167.407671 109.207058,167.446695 108.547308,167.456014 L108.547308,175.741239 C127.232058,164.820468 139.817475,144.582386 139.817475,121.447825 L139.819808,108.911945 L133.837142,108.911945 Z" id="Fill-55" fill="#0090C7" mask="url(#mask-4)"></path>
            <path d="M90.6852917,46.7332111 L101.974542,59.0495109 C102.055042,59.1374595 102.147792,59.2073525 102.237042,59.2836522 L102.237042,50.4864617 L90.6852917,37.8841833 L90.6852917,46.7332111 Z" id="Fill-56" fill="#ED3C95" mask="url(#mask-4)"></path>
            <path d="M121.2197,35.7786004 C121.15845,35.7768531 121.097783,35.7692814 121.03595,35.7692814 L121.0307,35.7692814 L121.0307,38.7566218 C121.03245,38.7566218 121.0342,38.7560394 121.03595,38.7560394 C121.098367,38.7560394 121.157867,38.7717653 121.2197,38.7746775 C123.28645,38.8725276 124.940783,40.5680137 124.940783,42.6554827 L124.940783,67.5321251 C124.940783,68.3568617 125.61045,69.0249216 126.43645,69.0249216 C127.26245,69.0249216 127.9327,68.3568617 127.9327,67.5321251 L127.9327,42.6554827 C127.9327,38.9202878 124.937283,35.8776154 121.2197,35.7786004" id="Fill-57" fill="#C61B37" mask="url(#mask-4)"></path>
            <path d="M121.030583,22.2982921 L110.851417,22.2982921 L121.021833,8.14672034 L121.030583,8.15836916 L121.030583,0.000698929336 C121.027667,0.000698929336 121.02475,-0.000465952891 121.021833,-0.000465952891 C120.0535,-0.000465952891 119.14525,0.466069379 118.580583,1.2512 L102.881917,23.0944891 C102.56925,23.5295726 102.403,24.0205704 102.349333,24.5179752 C102.28925,24.7416325 102.250167,24.9734441 102.242583,25.2145747 L102.242583,103.424185 C102.2735,105.046866 103.595333,106.354446 105.228083,106.354446 C106.880083,106.354446 108.219417,105.017161 108.219417,103.367106 L108.219417,28.272973 L121.030583,28.272973 L121.030583,22.2982921 Z" id="Fill-58" fill="#EE4050" mask="url(#mask-4)"></path>
            <path d="M121.030583,35.7695143 C117.229583,35.7724266 114.1385,38.8593645 114.1385,42.6551332 L114.1385,61.1983109 C114.1385,62.02363 114.808167,62.6916899 115.634167,62.6916899 C116.460167,62.6916899 117.129833,62.02363 117.129833,61.1983109 L117.129833,42.6551332 C117.129833,40.5065079 118.87925,38.7591846 121.030583,38.7562724 L121.030583,35.7695143 Z" id="Fill-59" fill="#EE4050" mask="url(#mask-4)"></path>
            <path d="M50.42275,31.9805019 L43.9430833,31.9805019 C42.2905,31.9805019 40.9511667,33.3177867 40.9511667,34.9678424 L40.9511667,45.2986004 L37.0830833,45.2986004 L37.0830833,51.2726989 L43.9430833,51.2726989 C45.5950833,51.2726989 46.9344167,49.9354141 46.9344167,48.2853585 L46.9344167,37.9546004 L50.42275,37.9546004 L50.42275,31.9805019 Z" id="Fill-60" fill="#1A8E46" mask="url(#mask-4)"></path>
            <path d="M50.42275,52.5579135 L38.68725,65.0623418 C37.5579167,66.2656651 37.6191667,68.1568514 38.8249167,69.2844574 C39.4024167,69.8243803 40.1368333,70.0917208 40.8700833,70.0917208 C41.6680833,70.0917208 42.4643333,69.7742904 43.0535,69.1470013 L50.42275,61.2951126 L50.42275,52.5579135 Z" id="Fill-61" fill="#1A8E46" mask="url(#mask-4)"></path>
            <path d="M50.42275,93.3251221 L50.42275,88.172848 C47.4121667,88.2584668 44.40625,88.3627238 41.4394167,88.2887537 C39.9583333,88.25206 38.5128333,88.1565396 37.0830833,87.9963683 L37.0830833,93.2004797 C41.56425,93.6862355 46.09675,93.4666552 50.6210833,93.3192976 C50.5551667,93.3216274 50.4886667,93.3233747 50.42275,93.3251221" id="Fill-62" fill="#1A8E46" mask="url(#mask-4)"></path>
            <path d="M50.42275,103.277526 L50.42275,98.0821516 C49.8755833,98.053612 49.3278333,98.0198304 48.7824167,98.0058518 C44.8880833,97.9056719 40.9756667,98.0926355 37.0830833,98.1456377 L37.0830833,103.354991 C39.72675,103.321792 42.3756667,103.230349 45.0146667,103.197149 C46.886,103.172687 48.7631667,103.188995 50.6339167,103.292087 C50.5633333,103.288593 50.4933333,103.281021 50.42275,103.277526" id="Fill-63" fill="#1A8E46" mask="url(#mask-4)"></path>
            <path d="M75.387025,25.9573036 L60.3206917,42.0058861 L60.3206917,50.7465799 L77.5418583,32.3985199 L77.5418583,25.0149139 C76.7251917,25.0230681 75.9464417,25.3608839 75.387025,25.9573036" id="Fill-64" fill="#F9A51A" mask="url(#mask-4)"></path>
            <path d="M73.1334333,106.85919 C69.93385,103.949314 66.2956,101.649836 62.2204333,100.175678 C61.6347667,99.9642518 61.0415167,99.7755409 60.4447667,99.601391 L60.4447667,105.087404 C62.9840167,105.997177 65.3675167,107.283789 67.5007667,108.911712 L75.2217667,108.911712 C74.55035,108.206376 73.8585167,107.517931 73.1334333,106.85919" id="Fill-65" fill="#F9A51A" mask="url(#mask-4)"></path>
            <path d="M70.7345917,74.5211854 L70.7345917,90.3053396 C67.3880083,89.0664874 63.9405083,88.4793867 60.4445917,88.2353439 L60.4445917,93.4243118 C62.266925,93.580406 64.0810917,93.8448343 65.882425,94.2711812 C70.4353417,95.3481148 74.2567583,97.6248771 77.5420917,100.580183 L77.5420917,93.9240463 C76.562675,93.2338535 75.556425,92.5791897 74.4918417,92.0054852 L73.6588417,91.611755 L73.6588417,74.5211854 C73.6588417,72.3778021 75.3983417,70.633391 77.5420917,70.6182475 L77.5420917,67.6984702 C73.7860083,67.7136137 70.7345917,70.7679349 70.7345917,74.5211854" id="Fill-66" fill="#F9A51A" mask="url(#mask-4)"></path>
            <path d="M78.0353583,32.9323854 L90.685525,46.7333276 L90.685525,37.8842998 L79.7766083,25.9826981 C79.3169417,25.4817987 78.699775,25.1754347 78.0353583,25.0717602 L78.0353583,25.0612762 C77.9256917,25.0443854 77.8136917,25.0333191 77.702275,25.0251649 C77.7011083,25.0251649 77.700525,25.0245824 77.6999417,25.0245824 C77.662025,25.0216702 77.6258583,25.0123512 77.5873583,25.0123512 L77.5698583,25.0123512 C77.560525,25.0123512 77.5511917,25.0152634 77.5418583,25.0152634 L77.5418583,32.3982869 L77.5441917,32.3959572 L78.0353583,32.9323854 Z" id="Fill-67" fill="#F16522" mask="url(#mask-4)"></path>
            <path d="M85.2945917,101.129192 L84.4050083,100.16001 L84.4050083,74.5209525 C84.4050083,70.7583829 81.338425,67.6970724 77.5695083,67.6970724 C77.560175,67.6970724 77.551425,67.6982373 77.5420917,67.6982373 L77.5420917,70.6180146 C77.551425,70.6180146 77.560175,70.6168497 77.5695083,70.6168497 C79.7255083,70.6168497 81.480175,72.3682501 81.480175,74.5209525 L81.480175,97.0940403 C80.3887583,96.0881645 79.2372583,95.152764 78.0355917,94.282597 L78.0355917,94.2598818 C77.9480917,94.1963957 77.8553417,94.1393165 77.7678417,94.0764128 C77.7445083,94.0601045 77.7235083,94.0408839 77.6995917,94.0245756 L77.6995917,94.0304 C77.6482583,93.9937062 77.5940083,93.9599246 77.5420917,93.9238133 L77.5420917,100.580533 C77.6628417,100.688867 77.7888417,100.791376 77.9078417,100.90204 C80.4360083,103.242289 82.638675,105.985586 84.589925,108.911188 L90.748175,108.911188 C89.1165917,106.204002 87.3205083,103.562631 85.2945917,101.129192" id="Fill-68" fill="#F16522" mask="url(#mask-4)"></path>
            <path d="M105.947683,134.946306 C99.7316833,127.525424 96.2287667,118.286743 91.4022667,109.995111 C91.1905167,109.631668 90.96535,109.272884 90.7477667,108.91177 L84.5901,108.91177 C85.1501,109.751651 85.6926,110.603179 86.2141,111.466357 C91.4116,120.080661 95.0691,129.551154 101.347517,137.50497 C103.398517,140.103239 105.837433,142.504644 108.547017,144.520473 L108.547017,137.728627 C107.6341,136.850888 106.764933,135.922477 105.947683,134.946306" id="Fill-69" fill="#0D6A89" mask="url(#mask-4)"></path>
            <path d="M87.2627583,127.207644 C85.029175,122.891173 82.6538417,118.556063 79.8258417,114.565759 L79.8258417,114.548286 C79.0377583,113.438153 78.209425,112.359472 77.3425917,111.312243 L77.3425917,120.108269 C78.2100083,121.45895 79.033675,122.841665 79.8258417,124.247678 L79.8258417,124.25059 C85.2100083,133.800295 89.2455083,144.345391 97.1012583,152.165245 C100.358008,155.407113 104.279758,158.120123 108.546842,159.819104 L108.546842,154.176997 C105.888008,152.839712 103.406508,150.999781 101.270925,148.953083 C94.9890083,142.933554 91.2037583,134.822479 87.2627583,127.207644" id="Fill-70" fill="#0D6A89" mask="url(#mask-4)"></path>
            <path d="M79.8258417,142.428752 L79.8258417,142.420598 C79.674175,142.129377 79.5190083,141.837574 79.3685083,141.546936 C78.6947583,140.244598 78.0227583,138.940512 77.3425917,137.641086 L77.3425917,148.845506 C78.139425,150.312675 78.9613417,151.762371 79.8258417,153.181197 L79.8258417,153.182945 C82.3365083,157.300803 85.2100083,161.161806 88.9042583,164.446773 C92.932175,168.028786 97.7790917,170.813437 102.967258,172.002782 C101.064425,172.98769 99.1015083,173.870671 97.081425,174.640658 C92.107925,174.510773 87.220175,172.162371 83.3940917,168.972923 C82.1055083,167.898319 80.9283417,166.724118 79.8258417,165.486431 L79.8258417,165.463716 C78.949675,164.479973 78.125425,163.451964 77.3425917,162.390174 L77.3425917,170.114508 C78.1295083,170.912452 78.951425,171.684769 79.8258417,172.418063 C79.847425,172.436118 79.8672583,172.455339 79.8882583,172.472812 C82.234425,174.428067 84.834925,176.10142 87.6005083,177.332118 C85.0635917,177.818457 82.4677583,178.138217 79.8258417,178.279167 L79.8258417,178.263442 C79.0027583,178.311202 78.1755917,178.343236 77.3425917,178.354885 L77.3425917,184.330148 C78.1750083,184.319664 79.002175,184.291125 79.8258417,184.248024 L79.8258417,184.260255 C87.6512583,183.890988 95.1050917,182.088915 101.935342,179.112058 C102.017008,179.078277 102.621925,178.796958 103.128258,178.5733 C104.986758,177.717112 106.792175,176.766568 108.546842,175.738559 L108.546842,167.456247 C102.866342,167.537788 97.203925,164.790996 92.8452583,160.987656 C87.073175,155.952452 83.3147583,149.145463 79.8258417,142.428752" id="Fill-71" fill="#0D6A89" mask="url(#mask-4)"></path>
            <path d="M30.4584,123.866004 C26.99515,127.791657 24.1875667,131.627032 21.6804,135.860214 C20.6893167,132.083084 20.0797333,128.154518 19.8919,124.117036 C23.3954,124.038989 26.9379833,123.829893 30.4584,123.866004 M36.7642333,124.285944 C37.9484,124.446698 39.1267333,124.655212 40.2945667,124.941773 C42.0399,125.37045 43.6854833,125.989002 45.2429833,126.757824 L45.2429833,126.757242 C45.8344833,127.049627 46.4160667,127.358904 46.9819,127.693807 C46.3869,128.244797 45.8187333,128.820831 45.2429833,129.389876 C38.46115,136.093773 33.0052333,144.040017 29.2573167,152.757996 C27.0949,149.493413 25.26615,145.99236 23.8060667,142.30609 C27.2407333,135.677328 30.9425667,130.516899 36.4819,124.651717 C36.5904,124.537559 36.6819833,124.413499 36.7642333,124.285944 M43.7659833,114.403084 C44.2594833,114.456086 44.7512333,114.532968 45.2429833,114.608685 L45.2429833,114.595289 C47.0215667,114.864959 48.7797333,115.284899 50.4795667,115.866758 L50.4795667,110.443066 C49.35315,110.116317 48.2022333,109.84257 47.0227333,109.641627 C46.4294833,109.540283 45.8368167,109.454081 45.2429833,109.378364 C36.8009833,108.297936 28.2849,109.592702 19.8242333,108.942116 L19.8242333,108.911829 L13.8409833,108.911829 L13.8409833,121.447126 C13.8409833,144.635854 26.4870667,164.912377 45.2429833,175.816257 L45.2429833,175.824994 C46.9399,176.811649 48.6875667,177.719092 50.4795667,178.547906 L50.4795667,171.887692 C48.6759,170.94239 46.9282333,169.90448 45.2429833,168.780368 L45.2429833,168.781533 C45.0067333,168.624857 44.7664,168.474587 44.5330667,168.313833 C44.7477333,167.472788 44.9863167,166.637567 45.2429833,165.807006 L45.2429833,165.820985 C46.5053167,161.727589 48.2745667,157.78155 50.4795667,154.083049 L50.4795667,145.29343 C48.5283167,147.788026 46.7748167,150.432308 45.2429833,153.194827 L45.2429833,153.202981 C43.1529,156.969045 41.4670667,160.949448 40.2560667,165.062647 C37.5184833,162.770158 34.99615,160.22955 32.7304833,157.469944 C35.6179833,149.852779 39.8763167,142.788351 45.2429833,136.636608 L45.2429833,136.623212 C46.8850667,134.740762 48.63565,132.949756 50.4795667,131.250193 L50.4795667,124.007537 C48.8579,122.960891 47.1219,122.052283 45.2429833,121.320737 L45.2429833,121.332385 C44.6369,121.094749 44.02615,120.862355 43.38915,120.663161 C35.7737333,118.280394 27.7027333,119.024754 19.8242333,119.172111 L19.8242333,114.145645 C27.7890667,114.744394 35.8029,113.549807 43.7659833,114.403084" id="Fill-72" fill="#C9DA2A" mask="url(#mask-4)"></path>
            <path d="M79.8258417,142.428752 L79.8258417,142.420598 C79.674175,142.129377 79.5190083,141.837574 79.3685083,141.546936 C78.6947583,140.244598 78.0227583,138.940512 77.3425917,137.641086 L77.3425917,148.845506 C78.139425,150.312675 78.9613417,151.762371 79.8258417,153.181197 L79.8258417,153.182945 C82.3365083,157.300803 85.2100083,161.161806 88.9042583,164.446773 C92.932175,168.028786 97.7790917,170.813437 102.967258,172.002782 C101.064425,172.98769 99.1015083,173.870671 97.081425,174.640658 C92.107925,174.510773 87.220175,172.162371 83.3940917,168.972923 C82.1055083,167.898319 80.9283417,166.724118 79.8258417,165.486431 L79.8258417,165.463716 C78.949675,164.479973 78.125425,163.451964 77.3425917,162.390174 L77.3425917,170.114508 C78.1295083,170.912452 78.951425,171.684769 79.8258417,172.418063 C79.847425,172.436118 79.8672583,172.455339 79.8882583,172.472812 C82.234425,174.428067 84.834925,176.10142 87.6005083,177.332118 C85.0635917,177.818457 82.4677583,178.138217 79.8258417,178.279167 L79.8258417,178.263442 C79.0027583,178.311202 78.1755917,178.343236 77.3425917,178.354885 L77.3425917,184.330148 C78.1750083,184.319664 79.002175,184.291125 79.8258417,184.248024 L79.8258417,184.260255 C87.6512583,183.890988 95.1050917,182.088915 101.935342,179.112058 C102.017008,179.078277 102.621925,178.796958 103.128258,178.5733 C104.986758,177.717112 106.792175,176.766568 108.546842,175.738559 L108.546842,167.456247 C102.866342,167.537788 97.203925,164.790996 92.8452583,160.987656 C87.073175,155.952452 83.3147583,149.145463 79.8258417,142.428752 M87.2627583,127.207818 C85.029175,122.891347 82.6538417,118.556238 79.8258417,114.565934 L79.8258417,114.548461 C79.0377583,113.438328 78.209425,112.359647 77.3425917,111.312418 L77.3425917,120.108444 C78.2100083,121.459125 79.033675,122.84184 79.8258417,124.247853 L79.8258417,124.250765 C85.2100083,133.800469 89.2455083,144.345566 97.1012583,152.16542 C100.358008,155.406705 104.279758,158.119716 108.546842,159.818696 L108.546842,154.177172 C105.888008,152.839887 103.406508,150.999955 101.270925,148.953257 C94.9890083,142.933728 91.2037583,134.822071 87.2627583,127.207818 M108.546842,137.729035 L108.546842,144.520881 C105.837258,142.504469 103.398342,140.103065 101.347925,137.504795 C95.068925,129.551561 91.411425,120.080487 86.213925,111.466182 C85.6930083,110.603005 85.149925,109.751476 84.589925,108.911596 L90.748175,108.911596 C90.9657583,109.273292 91.1903417,109.631493 91.402675,109.994936 C96.2285917,118.286568 99.7315083,127.525249 105.947508,134.946131 C106.765342,135.922302 107.633925,136.850713 108.546842,137.729035" id="Fill-73" fill="#0B6989" mask="url(#mask-4)"></path>
            <path d="M77.34265,120.108269 L77.34265,111.312243 C76.6619,110.490419 75.9595667,109.686068 75.2222333,108.911421 L67.50065,108.911421 C67.8687333,109.192158 68.2304,109.481048 68.5827333,109.781006 C72.1089833,112.782907 74.9054833,116.313665 77.34265,120.108269" id="Fill-74" fill="#31BBAC" mask="url(#mask-4)"></path>
            <path d="M57.9231917,175.133054 C57.925525,175.12024 57.930775,175.108009 57.9331083,175.095195 C59.1429417,167.899717 62.444025,161.044968 67.3014417,155.53391 C68.9061917,158.55445 70.592025,161.514415 72.529275,164.288582 C69.7193583,168.228214 67.907525,172.770672 67.235525,177.542612 C64.033025,176.99803 60.921525,176.189019 57.9231917,175.133054 L57.9231917,175.133054 Z M77.3429417,178.354535 C77.1714417,178.356865 77.0016917,178.365019 76.8296083,178.365019 C75.262775,178.365019 73.7151917,178.28406 72.1804417,178.159418 C72.678025,174.69797 73.8936917,171.379803 75.7539417,168.414013 C76.2643583,168.994707 76.7963583,169.560257 77.3429417,170.114741 L77.3429417,162.390407 C74.893525,159.070493 72.8553583,155.425576 70.940275,151.780077 C65.6331083,141.677054 60.191775,130.278681 50.479275,124.007537 L50.479275,131.250193 C50.687525,131.057987 50.8916917,130.861704 51.1028583,130.671829 C52.971275,132.288685 54.663525,134.140266 56.1883583,136.143863 C56.6106917,136.699512 57.012025,137.270887 57.4116083,137.843426 C54.887525,140.121936 52.5699417,142.621191 50.479275,145.29343 L50.479275,154.083049 C53.109525,149.671058 56.3604417,145.612608 60.135775,142.095246 C61.8146083,144.932317 63.343525,147.878887 64.8596083,150.83361 C58.928275,156.999332 54.8291917,164.88209 53.212775,173.229636 C52.287025,172.807366 51.377025,172.357722 50.479275,171.887692 L50.479275,178.547906 C58.5001083,182.258056 67.4239417,184.339118 76.8296083,184.339118 C77.0011083,184.339118 77.1714417,184.332128 77.3429417,184.330381 L77.3429417,178.354535 Z" id="Fill-75" fill="#31BBAC" mask="url(#mask-4)"></path>
            <path d="M50.47945,115.866816 C51.9628667,116.375287 53.4025333,117.005489 54.7681167,117.784212 C57.8837,119.56124 60.5285333,121.929446 62.9003667,124.627313 C69.1391167,131.721446 72.8467833,140.566397 77.3425333,148.845215 L77.3425333,137.641377 C74.3395333,131.903167 71.17145,126.26572 66.9160333,121.32196 C62.4862,116.174928 56.9276167,112.313343 50.47945,110.442542 L50.47945,115.866816 Z" id="Fill-76" fill="#31BBAC" mask="url(#mask-4)"></path>
        </g>
    </g>
</svg>